<?xml version="1.0" encoding="utf-8"?>
<!-- Generator: Adobe Illustrator 17.1.0, SVG Export Plug-In . SVG Version: 6.00 Build 0)  -->
<!DOCTYPE svg PUBLIC "-//W3C//DTD SVG 1.1//EN" "http://www.w3.org/Graphics/SVG/1.1/DTD/svg11.dtd">
<svg version="1.1" id="Layer_1" xmlns="http://www.w3.org/2000/svg" xmlns:xlink="http://www.w3.org/1999/xlink" x="0px" y="0px" width="612px" height="612px"
	 viewBox="0 0 612 612" enable-background="new 0 0 612 612" xml:space="preserve">
<radialGradient id="SVGID_1_" cx="337.165" cy="324.8442" r="256.0714" gradientTransform="matrix(1 0 0 -1 0 524)" gradientUnits="userSpaceOnUse">
	<stop  offset="0" style="stop-color:#ED6A36"/>
	<stop  offset="0.2003" style="stop-color:#E66032"/>
	<stop  offset="0.5191" style="stop-color:#D64A29"/>
	<stop  offset="0.9144" style="stop-color:#BE2726"/>
	<stop  offset="1" style="stop-color:#B92025"/>
</radialGradient>
<path fill="url(#SVGID_1_)" d="M563.1,252.4c-3.1,0.2-6.8,0.5-10.6,1.2c3.3-3.2,7.1-6.7,10.9-10c12.1-10.4,24.6-19.7,24.6-19.8
	c0,0.1-13.9,7-27.8,15.3c-3.7,2.2-7.3,4.5-10.7,6.8c-2.4,0.7-6.7,2.2-11,4.4c-0.7,0.3-1.4,0.7-2,1.1c0.7-1,1.5-2.2,2.4-3.3
	c2.7-3.2,6.2-5.9,6.1-5.9c0,0-4.3,0-8.9,1.1c-0.4,0.1-0.7,0.2-1.1,0.3c2.6-3.3,6.3-7.2,10.1-10.9c4.3-4.1,8.8-8.1,12-11
	c9.3-3.9,17.3-6.6,17.4-6.6c0,0-12.5,1.2-25.1,3.9c-10.2,2.1-20.5,4.4-24.9,5.4c2-1.8,4.2-3.6,6.4-5.5c3.7-1.8,7-3,7-3
	c0,0-1.1-0.2-2.8-0.4c1.1-0.8,2.1-1.6,3.1-2.4c0.8-0.2,1.2-0.3,1.2-0.3s-0.3,0-0.8,0c5.4-4.1,9.6-7.2,9.6-7.2c0,0-8.8,3.3-18.2,7.5
	c-1.2,0.1-2.5,0.1-3.8,0.2c1.3-0.6,2.6-1.2,3.8-1.8c4.3-2.3,8.4-4.6,10.9-6c0.8-0.3,1.7-0.6,2.4-0.8c5.2-1.6,8.8-2.1,8.8-2.1
	c0,0-2.2-0.1-5.9,0.1c6.8-2.3,11.4-4.1,11.5-4.1c0,0-14,2.5-28.4,3.6c-1.2,0.1-2.5,0.2-3.7,0.3c0.2-0.2,0.5-0.3,0.7-0.5
	c5.8-3.9,11.5-7.5,11.5-7.4c0-0.1-6.8,0.9-13.6,2.2c-2,0.3-3.9,0.6-5.7,0.9c0.4-0.4,0.7-0.9,1.1-1.3c2.3-0.7,4.7-1.4,7.1-2.1
	c9-2.4,18.1-3.9,25-4.3c6.9-0.5,11.5-0.1,11.5-0.2c0,0-4.5-1-11.5-1.6c-2.6-0.2-5.6-0.4-8.8-0.4c10.4-2.4,17.9-3.6,17.9-3.6
	c0,0.1-14.1,0.3-30.9,2.6c0.9-0.6,1.4-1,1.4-1c0,0-4.7,0.6-10,2.2c0.3-0.3,0.7-0.7,1.1-1c5.5-5.4,12.1-9.4,16-11.4
	c7.1-2.8,12.1-4.8,12-4.8c0,0.1-10.3,2-22.5,4.2c0.7-0.5,1.5-0.9,2.2-1.4c0.8-0.5,1.6-0.9,2.4-1.4c1.7,0.1,2.7,0.1,2.7,0.1
	s-0.7-0.2-1.9-0.5c9.4-5,18.7-8.2,18.6-8.2c0,0.1-8.6,0.9-18.7,3.4c0.6-0.2,1.2-0.4,1.8-0.6c9.7-3.1,19.3-6,19.2-6
	c0,0-7.4,0.1-16,0.4c1.5-1.2,2.5-1.9,2.5-2c0,0-1.8,0.7-4.6,2c-0.7,0-1.4,0-2.1,0.1c-10.3,0.4-21,1.4-22.2,1.8
	c-0.3,0.1-0.6,0.2-0.9,0.3c-1.7,0-3.3,0-5,0.1l14.1-5.9l-17.4,1.3c0,0,0,0,0,0c3.2-1.1,6.5-2.2,9.9-3.3c7.3-2.2,14.6-4.2,20.1-5.7
	c5.5-1.5,9-2.6,9-2.7c0,0-3.7,0.5-9.3,0.9c-5.6,0.5-13.2,1.1-20.9,2c-2.8,0.3-5.6,0.7-8.4,1.1c3.5-1.6,6-2.5,6-2.5
	c0,0-2.9,0.3-7.4,1.3c-0.6,0.1-1.3,0.3-2,0.5c2.2-1.5,3.9-2.5,3.8-2.5c0,0.1-6,0.3-12.3,2.3c-2.1,0.6-4.1,1.5-5.9,2.5
	c2.8-3.1,6.5-6.5,10.6-9.5c2.5-1.9,5.2-3.7,7.7-5.2c1.9-0.8,3.8-1.5,5.5-2.1c5.7-2,9.5-3.1,9.5-3.1c0,0-3,0.3-7.6,1
	c3.2-1.7,5.3-2.6,5.3-2.6c0,0-8.7,1.6-18.4,5.3c-1.3,0.3-2.6,0.6-3.9,1c1-1.4,1.6-2.3,1.7-2.2c0-0.1-2.3,1.4-5.5,3.2
	c-1.1,0.3-2.3,0.6-3.4,0.9l-10.2,2.9c0.3-0.7,0.7-1.4,1.1-2c1.7-1.8,3.6-3.8,5.8-5.9c6.1-2.9,11.6-6.1,15.8-9.1
	c5.9-4.2,9.1-7.6,9.2-7.6c0-0.1-3.8,2.9-10.1,6.1c-2,1-4.3,2.1-6.8,3.1c8-7,16.1-12.4,16.1-12.4c0,0-10.8,3.8-21.3,9.6
	c-5.5,2.9-10.8,6.3-14.8,9c-0.8,0.2-1.6,0.4-2.5,0.5c0-0.1-0.1-0.1-0.1-0.2c0.3-0.5,0.6-1,0.9-1.5c7.5-3.6,13.2-6.3,13.2-6.3
	c0,0-4.4,1-10.7,2.4c0.3-0.5,0.7-1,1-1.5c2.1-2.8,4.7-5.1,7.1-6.4c2.3-1.3,4.2-1.7,4.2-1.7c0,0-1.8-0.3-4.7,0.1
	c-1.1,0.1-2.3,0.5-3.6,0.9c6.6-5.5,12.4-8.9,12.3-8.9c0.1,0-9.2,3.2-19.2,9.4c0.3-0.5,0.7-0.9,1-1.4c0.8-1,1.7-2,2.6-2.9
	c7.5-4.7,12.7-8.7,13.2-9.1c1.6-0.5,2.5-0.9,2.5-0.8c0,0-4.7,0.9-11.8,2.1c-1.6,0.3-3.3,0.5-5.1,0.8l4.2-6.1l-11,7.2
	c-0.9,0.2-1.8,0.3-2.8,0.5c0.7-0.6,1.4-1.2,2-1.9c5.6-5.5,9.8-12.2,11.7-17.5c2-5.3,2.4-9,2.4-8.9c0,0-1.1,3.5-4,8.2
	c-2.8,4.6-7.8,10-13.7,14c-3,2.1-6.3,3.9-9.4,5.5c-0.8-0.3-1.9-0.7-3.1-0.7c-0.1,0-0.1,0-0.2,0c1.5-1.6,3.1-3.4,4.8-5
	c3-3,6.1-5.8,8.6-7.7c2.5-1.9,4.3-3,4.3-3.1c0,0-2,0.5-5.1,1.5c-3.1,1-7.1,2.7-11,4.7c-3.2,1.6-6.3,3.3-9,4.9
	c-0.2-0.2-0.4-0.3-0.6-0.5l0.3-0.1l1.3-0.7l5.3-2.9l11.3-6.2c7.6-4.2,15-8.6,20.3-12.1c5.3-3.5,8.7-6.1,8.7-6.1c0,0-3.7,2-9.5,4.6
	c-5,2.2-11.6,4.9-18.6,7.4c1.9-1.8,3.7-3.6,5.4-5.5c2.2-1.1,3.6-1.7,3.6-1.7c0,0-0.9,0.2-2.5,0.6c2.2-2.5,4.2-4.8,5.8-7
	c3.5-4.7,5.5-8,5.5-8c0,0-2.5,2.9-6.8,6.8c-3.4,3.1-8,6.8-13.1,10.2c-0.5,0.1-1,0.2-1.5,0.4c1.2-1.4,2.4-2.8,3.4-4.1
	c4.9-5.7,8.3-9.3,8.3-9.3c0,0-2.6,2.1-6.5,5.5c-1.3,0.7-2.9,1.7-5,2.7c-4.6,2.4-10.9,5.2-17.5,7.6c-5,1.8-10.1,3.5-14.6,5
	c-0.4-0.3-0.8-0.5-1.1-0.8c0.8-0.7,1.7-1.5,2.7-2.3c0.1-0.1,0.3-0.2,0.4-0.3c11.7-5.6,22.4-10.2,22.4-10.2c0,0-3.2,0.6-8,1.7
	c0.3-0.1,0.6-0.3,0.9-0.4c6.1-2.8,12.3-5.2,17-7c4.7-1.8,7.7-3.1,7.7-3.1l-8.2,1.4c-4.5,0.7-10.5,1.7-16.6,3.1
	c4.9-3.1,8.1-5.3,8.1-5.2c0,0-3.8,1.8-9.7,4.3c0.1-0.2,0.2-0.4,0.2-0.4c0,0-0.1,0.2-0.4,0.4c-1.9,0.9-4.1,1.8-6.4,2.8
	c0.7-1,1.4-2.1,2-3.1c2.5-1.2,4.1-1.7,4-1.7c0,0-1.3,0.2-3.4,0.6c0.2-0.3,0.4-0.7,0.5-1c0.4-0.7,0.7-1.4,1-2.1
	c0.6-0.6,1.3-1.2,1.8-1.8c3.3-3.5,4.9-6.1,4.9-6.1c0,0-2,1.9-5.5,4.3c0.5-1.7,0.6-2.7,0.7-2.7c0,0-0.5,1.3-1.7,3.4
	c-3.8,2.6-9,5.4-14.6,7.9c-1.2,0.5-2.4,1.1-3.6,1.6c8-6.6,14.2-12,14.2-12c0-0.1-12.4,7.2-25.4,13.9c-0.7,0.4-1.5,0.7-2.2,1.1
	c1.5-1.7,3.1-3.4,4.9-4.9c4.2-3.6,9.4-6,13.4-7.4c4.1-1.4,6.9-1.9,6.9-1.9c0,0-2.9-0.1-7.3,0.2c-3,0.2-6.7,0.9-10.5,2.2
	c0.8-0.6,1.7-1.3,2.5-1.9c12.4-9.2,24.9-17.9,24.8-18c0,0.1-13.7,6.3-27.7,13.2c-5.3,2.7-10.7,5.6-15.3,8.3c1.2-1.8,2.6-3.6,4-5.3
	c3-3.7,6.4-7.1,9.3-9.2c2.8-2.2,5.1-3.1,5.1-3.1c0,0-2.4,0.2-5.9,1.6c-3,1.1-6.8,3.1-10.5,5.5c0.4-0.6,0.8-1.2,1.2-1.8
	c2.1-3.6,3.2-6.5,3.7-8c0.1-0.1,0.3-0.2,0.4-0.4c3.4-2.8,5.5-4.8,5.5-4.8c0,0-2.5,1.4-6.5,3.3c-0.4,0.2-0.8,0.4-1.2,0.6
	c2.3-3.4,4-6.8,5-9.8c2.2-5.9,2.5-10.1,2.6-10c-0.1,0-1.1,4-4.1,9.3c-3,5.3-8.4,11.5-15.2,15.7c-0.7,0.4-1.4,0.8-2.1,1.2
	c-3,1.3-6,2.7-8.8,4.1c-1,0.4-2,0.7-3,1c0,0,0,0,0,0c1.4-1.9,2.3-3.5,2.9-4.7c5.8-2.8,10.5-4.3,10.4-4.3c0,0-3.9,0.2-9.4,1.1
	c0,0,0,0,0,0c1.3-3.5,1.3-5.8,1.4-5.8c0,0-0.8,2.2-2.9,5c-0.3,0.4-0.8,0.9-1.2,1.4c-1.6,0.3-3.3,0.7-5,1.2c0.5-0.6,1-1.2,1.5-1.8
	c8.2-10.3,13.1-21.7,13.1-21.6c0-0.1-7.5,10-17.1,17.7c-2.2,1.8-4.6,3.5-6.8,4.9c-0.2-0.7-0.4-1.4-0.7-2c-0.3-0.7-0.6-1.3-0.8-1.9
	c1.9-2.3,4-4.7,6.1-7.1c10.3-11.3,21-21.9,21-22c0,0.1-9,6.2-19.4,13.9c-0.2,0.1-0.4,0.2-0.5,0.3c-1.2,0.6-2.5,1.4-3.9,2.2
	c0.6-1.3,1.2-2.6,1.8-4c3-6.9,5.3-13.8,7.1-18.9L377,1l-4.5,7.8c-2.7,4.7-6.3,11-10.4,17c-2.1,3.1-4.3,6-6.5,8.7
	c-0.9,0.2-2.5,0.6-4.6,1.4c-3.1,1.2-7.2,3.1-11.1,5.6c0,0,0,0,0,0c0.2-2.8,0.2-5.7-0.1-8.5c-0.7-7.6-2.8-14.7-5.2-19.6
	c-2.3-4.9-4.6-7.6-4.6-7.7c0,0,1.7,3.1,2.9,8.2c1.3,5.1,2,12.1,1.2,19c-0.1,1.3-0.3,2.6-0.5,3.8c-0.1-9.8-1.4-17.5-1.2-17.5
	c-0.1-0.1-0.9,12.7-4.4,24.7c-0.9,3.1-2.1,6.2-3.4,8.8c-0.1,0-0.2,0-0.2,0c-0.3-0.7-0.7-1.4-1-2c-0.5-0.9-1-1.8-1.5-2.7
	c0-0.2,0-0.3,0-0.5c2.3-2.3,4.1-4.7,5.2-6.9c1.8-3.7,2.2-6.3,2.2-6.3c0,0-1.1,2.4-3.7,5.3c-1.1,1.3-2.6,2.5-4.2,3.6
	c-0.4-2-0.9-3.9-1.7-5.8c-1.6-3.8-3.9-6.9-6.5-9.3c2-7.3,3.3-12.9,3.4-12.9c0-0.1-2.3,4.3-5.5,10.2c-1.9-2.3-3.9-4.3-5.9-6.1
	c1.1-3.3,2.4-6.2,3.8-8.5c2.6-4.4,5.3-6.7,5.2-6.7c0,0-3,1.8-6.6,5.7c-1.8,1.9-3.6,4.4-5.3,7.3c-1-0.8-2.1-1.4-3-2
	c-4.7-2.8-8.1-3.8-8.1-3.8c0,0,3.2,1.7,7.1,5.2c0.9,0.8,1.9,1.8,2.8,2.8c-0.2,0.5-0.5,0.9-0.7,1.4c-1.2-0.4-2-0.6-2-0.6
	c0,0,0.7,0.3,1.8,1c-0.9,1.8-1.8,3.8-2.6,5.7c-1.8,4.2-3.3,8.4-4.8,12.1c-1.1,1.7-2.3,3.6-3.5,5.5c-0.6,1-1.3,2-1.9,3.1
	c0.2-2.3,0.3-4.6,0.3-6.8c-0.1-7.9-1.8-15.7-4.5-20.8c-0.2-0.4-0.4-0.8-0.6-1.2c1.8-4,3.2-6.4,3.2-6.4c0,0-1.5,2-3.8,5.4
	c-0.4-0.7-0.8-1.3-1.2-1.8c1.7-7.7,3.4-13.1,3.4-13.1c0,0-2.3,4.3-5.2,10.8c-0.7-0.8-1.2-1.3-1.2-1.3c0,0,0.4,0.6,1,1.7
	c-2.1,4.8-4.3,10.7-6.1,16.9c-0.4,1.4-0.8,2.9-1.1,4.3c-1.6,2.8-3.2,5.6-4.9,8.4c-0.4,0.7-0.9,1.4-1.4,2.1c0,0,0,0,0,0
	c0-0.4-0.1-0.8-0.1-1.2c-0.1-5.5,0.5-11.1,1.3-15.2c0.8-4.1,1.7-6.7,1.7-6.8c0,0-1.6,2.3-3.4,6.2c-1.4,3-3,7-4.2,11.3
	c-1.5-2.2-2.6-4.5-3.1-6.8c-0.6-2.8-0.5-5.6,0.2-8c1.3-4.7,3.4-7.5,3.3-7.5c0.1,0.1-2.6,2.2-5,6.9c-1.2,2.3-2.1,5.4-2,8.9
	c0,3.5,1.1,7.2,2.7,10.5c0.7,1.4,1.4,2.7,2.2,4c-0.4,2.5-0.6,5.1-0.7,7.5c-0.8,0.9-1.5,1.9-2.3,2.7c-0.3,0.1-0.7,0.2-1,0.3
	c0,0,0-0.1-0.1-0.1c-0.4-0.7-0.8-1.3-1.2-2c0.8-2.1,1.2-4.2,1.2-6c0.1-4-0.9-6.4-0.8-6.4c-0.1,0,0.1,2.6-0.9,6.2
	c-0.3,1-0.8,2.1-1.4,3.1c-0.9-3-1.9-5.9-2.8-8.5c0.1-1.7,0.3-3.4,0.7-4.8c0.8-3.9,2.1-6.3,2.1-6.3c0,0-1.8,2-3.7,5.8
	c-0.2,0.4-0.4,0.8-0.6,1.2c-0.2-0.4-0.3-0.9-0.5-1.3l-3.2-8.1l1.5,8.6c0.2,1.4,0.5,2.9,0.7,4.4c-0.1,0.3-0.2,0.7-0.3,1
	c-0.4-0.5-0.8-1-1.2-1.4c-4.9-5.8-10.1-10.8-13.6-13.9c0.5-2.6,0.9-4.2,0.9-4.2c0,0-0.7,1.3-1.6,3.6c-1.9-1.7-3.2-2.8-3.2-2.8
	c0,0,1.1,1.4,2.7,3.8c-0.3,0.9-0.7,1.9-1.1,3c-0.2,0.7-0.4,1.4-0.7,2.1c-0.6-3.6-1.1-6.9-1.3-9.8c-0.5-5.7-0.4-9.5-0.4-9.5
	c0,0-0.8,3.7-1.3,9.5c-0.6,5.7-0.7,13.6-0.1,21.4c0,0.6,0.1,1.2,0.1,1.7c-2.2-0.8-4.4-1.6-6.3-2.1c-0.4-0.1-0.8-0.2-1.1-0.3
	c-0.3-2.6-0.5-5.4-0.5-8.3c-0.4-10.6,1.3-21.1,1.3-21.1c0,0-4.4,9.6-6.8,20.5c-0.6,2.3-1,4.7-1.4,7c-1.3-0.3-2.1-0.4-2.1-0.4
	c0,0,0.8,0.3,2,0.7c-0.1,0.8-0.3,1.7-0.4,2.5c-0.9-0.5-1.7-1-2.6-1.4c-1.1-1.7-2.2-3.4-3.4-5c-1.8-2.7-3.8-5.2-5.7-7.5
	c0.4-1.5,0.9-3,1.4-4.3c1.6-4,3.1-6.4,3.1-6.5c0,0-2,2-4.6,5.6c-0.6,0.8-1.2,1.7-1.8,2.7c-1.9-2.2-3.7-4.3-5.4-6
	c-3.8-4-6.6-6.3-6.6-6.3c0,0,2.3,2.8,5.2,7.4c1.5,2.4,3.2,5.2,4.9,8.3c-0.3,0.6-0.6,1.3-0.8,2l-2.1-2.6l1.8,3.4
	c-0.2,0.5-0.4,1-0.5,1.6c-0.3-0.1-0.5-0.2-0.5-0.2c0,0,0.1,0.1,0.4,0.4c-0.5,1.5-0.9,3.1-1.1,4.8c-0.2,1.3-0.3,2.6-0.3,3.9
	c-1.1-1.5-2.3-3.1-3.5-4.6c-6.1-7.4-13-13.3-13-13.3c0,0,3.3,5.2,6.3,11.8c0,1.3-0.1,4.7,0.2,8.8c-1.6-0.9-2.5-1.4-2.5-1.5
	c0,0,0.6,0.5,1.5,1.3c-1-0.3-1.5-0.5-1.5-0.5s0.9,0.5,2.5,1.4c0,0,0.1,0.1,0.1,0.1c0.1,1,0.2,2,0.3,3.1c0.2,1.8,0.4,3.6,0.5,5.3
	c-3.4-4.2-7-7.9-10.1-10.5c-4.2-3.6-7.6-5-7.5-5c0,0,3,2,6.3,6.2c2.5,3,5.2,7.1,7.6,11.6c-1-0.6-2-1.2-2.9-1.6
	c-0.3-0.1-0.5-0.3-0.8-0.4c-1.6-1.5-3.1-2.8-4.6-3.9c-4.2-3.2-7.2-4.6-7.2-4.7c0,0,2.7,2.1,6,6c3.4,3.8,7,9.4,9.7,15.7
	c0.9,2.1,1.8,4.2,2.7,6.4c-0.2,0.3-0.4,0.6-0.5,0.9c-1.9-1.8-3.9-3.6-6-5.3c-13.9-11.8-28.6-21.1-28.6-21.2
	c-0.1,0,13.1,11.7,24.7,25.1c1.5,1.7,3,3.5,4.4,5.2c-0.3-0.1-0.4-0.1-0.4-0.1c0,0,0.2,0.1,0.6,0.4c0.6,0.7,1.1,1.4,1.7,2.1
	c-0.7,1.3-1.4,2.6-2,3.9c-0.4-0.3-0.8-0.6-1.2-0.8c-0.4-1.1-1-2.2-1.5-3.2c-2.2-4.4-5.8-7.7-8.7-9.4c-2.8-1.8-4.9-2.5-4.9-2.5
	c0,0,1.7,1.4,3.7,3.8c1.1,1.3,2.1,3,3,4.8c-5.4-5-10.7-9.7-15-13.1c-4.6-3.6-7.7-5.8-7.7-5.9c0,0,2.7,2.8,6.5,7.1
	c1.6,1.8,3.4,4,5.3,6.4c-2.8-1.5-4.6-2.3-4.6-2.3c0,0,2.8,2,6.9,5.3c1.9,2.4,3.7,4.8,5.6,7.4c0.6,0.8,1.2,1.7,1.8,2.5
	c-5-3.7-10.8-7.5-16.9-10.7c-17.7-9.6-36.6-13.3-36.5-13.3c-0.1,0,18.1,6.5,33.6,18c7.5,5.4,14.2,11.8,19.3,17.3
	c-5-2.6-9.1-4.2-9.1-4.3c-0.1,0,5.5,5.1,9.8,10.9c0.2,0.3,0.4,0.6,0.6,0.9c-0.1,0.4-0.2,0.8-0.2,1.2c-0.2,0.2-0.4,0.4-0.6,0.6
	c-0.7-0.5-1.4-0.9-2.1-1.2c-3-1.5-5.1-1.9-5.1-2c0,0,0.9,0.6,2.1,1.6c-1.5-0.4-3.1-0.7-4.6-0.9c-2.2-1.1-4.2-2.1-6.1-3
	c-6.7-4.7-13.7-6.5-13.6-6.4c0-0.1,5.1,3.5,9.2,8.8c-10.2,0.2-18,2.4-18,2.3c-0.1,0,10-0.5,20.8,2.1c1.3,2.3,2.2,4.6,2.8,6.5
	c0,0.6,0.1,1.2,0.3,1.8c0.1,0.2,0.2,0.3,0.2,0.5c0.2,1.3,0.3,2.3,0.3,2.8c-0.6-0.2-1.1-0.4-1.7-0.6c-3.1-1-6.7-1.7-10.3-2.1
	c-0.2-0.1-0.4-0.1-0.7-0.2c-6.4-1.8-12.9-2.2-17.6-1.8c-4.7,0.4-7.6,1.5-7.6,1.4c0,0,3.1-0.3,7.6,0.3c0.1,0,0.2,0.1,0.3,0.1
	c-1.8,0.2-3.5,0.4-5,0.6c-4.3,0.7-6.9,2.1-6.9,2.2c0-0.1,2.7-0.8,7-0.4c4.2,0.3,9.8,1.2,15.2,2.8c0.1,0,0.2,0.1,0.3,0.1
	c-1.3-0.1-2.6-0.2-4-0.2c-0.9,0-1.7,0-2.6,0.1c-0.5-0.1-1.1-0.2-1.6-0.3c-14.3-2.5-27.9-1.9-27.9-2c0,0,7.8,1.4,17.3,4.2
	c-0.2,0.1-0.5,0.1-0.6,0.2c-4,1.3-6.3,2.8-6.3,2.7c0,0,2.6-0.9,6.6-1c2-0.1,4.3-0.1,6.7,0.2c0.9,0.3,1.8,0.7,2.8,1
	c6,2.3,11.6,5.3,15.5,8.3c-0.8-0.3-3-0.9-6-1.7c-1-0.4-1.9-0.9-2.9-1.3c0.3-1,0.5-1.6,0.5-1.6c0,0-0.5,0.5-1.1,1.4c-2-0.8-4-1.5-6-2
	c-1.1-0.3-2.2-0.6-3.3-0.9c0.5-1.5,0.9-2.4,0.9-2.4c0,0-0.8,0.8-2,2.1c-4.4-1-8.7-1.6-12-1.9c-4.5-0.4-7.4-0.2-7.4-0.2
	c0,0,2.9,0.5,7.1,1.9c1.8,0.6,3.9,1.4,6.1,2.3c-0.9,0-1.7,0-2.6,0.1c-6.9,0.2-13.6,1.9-18,4.1c-4.5,2.2-6.9,4.4-6.9,4.3
	c0,0.1,2.9-1.6,7.5-2.7c4.6-1.1,10.9-1.4,17.1-0.2c1,0.2,1.9,0.4,2.9,0.6c-0.1,0.1-0.1,0.2-0.2,0.3c-1.1,1.8-2.2,3.7-3.1,5.5
	c-5.7,0.7-11,1.9-15.1,3.3c-5.8,2-9.1,4.3-9.1,4.3c0,0,3.7-1.7,9.6-2.6c2.2-0.4,4.8-0.6,7.5-0.7c-1.7,0.9-3.4,1.9-4.9,3
	c-10.7,0.1-18.5,1.1-18.5,1.1c0-0.1,5.9,0.2,14.2,1.3c-0.2,0.1-0.5,0.1-0.8,0.1c-7.7,1.4-15.2,3.1-20.8,4.2
	c-5.6,1.2-9.3,1.6-9.3,1.5c0,0,3.8,0.3,9.5,0.2c4.7-0.1,10.6-0.3,16.8-0.4c-0.6,0.7-1.1,1.4-1.5,2.2c-1.8,2.9-2.6,5.3-2.9,7
	c-1,0.2-1.9,0.5-2.7,0.8c-3.9,1.2-6.4,2.2-6.4,2.2c0,0,2.7-0.3,6.7-0.5c3.6-0.1,8.2,0,12.9,0.5c-4,1.8-7.6,3.7-10.8,5.4
	c-1,0.1-2.1,0.2-3,0.3c-0.8,0.1-1.6,0.2-2.3,0.4c-1.9-0.8-3.8-1.5-5.4-2.1c-5.9-2.3-10.1-3.3-10.1-3.2c0,0,3.9,1.6,9.3,4.8
	c0.7,0.4,1.5,0.9,2.2,1.3c-0.8,0.2-1.2,0.3-1.2,0.3c0,0,0.6,0,1.7,0c0.4,0.2,0.8,0.5,1.3,0.7c-12.4,2.5-23.9,6.2-32.3,10.3
	c-10.3,4.8-16,9.8-16,9.7c0,0.1,6.2-4.3,16.7-8.1c10.1-3.7,24.1-6.6,38.6-7.7c2.2,1.3,4.4,2.7,6.7,4.1c-1.7,0.9-3.3,1.9-4.9,2.9
	c-5.3,3.2-10.2,6.6-13.8,9.2c-8,2.1-15.4,4.5-21.2,7c-4.7,2-8.5,4.1-10.8,5.9c-2.4,1.8-3.2,3.4-3.2,3.3c0,0,1-1.4,3.5-2.9
	c2.5-1.6,6.3-3.2,11.1-4.7c1.7-0.5,3.6-1,5.5-1.5c-0.7,0.7-1,1.2-1,1.2c0,0,0.8-0.7,2.3-1.5c2.9-0.7,6-1.3,9.2-1.9
	c-1.2,0.6-1.9,1-1.9,1c0,0,1.7-0.5,4.5-1.3c2.4,0.2,5,0.6,7.5,1.4c4.1,1.1,8.3,2.7,11.9,4.1c-0.1,0.1-0.2,0.2-0.3,0.2c0,0,0,0,0,0
	c-15.6,0.8-30.6,3.7-41.8,5.9L25.3,223l18.7-2.2c4.7-0.5,10-1,15.8-1.5c-1.6,0.8-3,1.7-4.1,2.7c-4.1,3.5-5.6,6.7-5.7,6.6
	c0,0.1,2.2-2.8,6.6-5.2c2.2-1.2,5-2.1,8-2.4c3-0.3,6.3-0.1,9.7,0.5c0.5,0.1,1,0.2,1.5,0.3c-1.7,1.7-2.7,2.8-2.7,2.8
	c0,0,1.6-1.1,4.3-2.5c1.7,0.3,3.4,0.7,5.1,1.2c-4.2,1.6-9.2,3.8-13.9,6.3c-10.2,5.4-19.3,11.7-19.3,11.7c0,0,0.6-0.2,1.6-0.6
	c-3.1,2.2-4.8,3.8-4.8,3.7c0,0,3.7-2.5,10-5.5c2.5-0.8,5.6-1.8,8.9-2.7c-7.5,5.1-14.3,10.2-16.9,12.1c-6.6,3.3-11.4,5.7-11.5,5.6
	c0,0.1,14.3-3.5,28.2-7c-7.9,4.5-16.2,7.9-16.2,7.8c0,0,0.5,0,1.5-0.1c-2.1,0.9-4,1.7-5.6,2.6c-5.4,2.9-8.6,5.5-8.6,5.4
	c0,0,3.6-1.9,9.3-3.8c3-1,6.6-1.9,10.5-2.5c-0.2,0.2-0.4,0.3-0.7,0.5c-8.4,5.9-15.9,12.2-15.9,12.2c0,0,7.5-3.3,15.9-6.4
	c-1,1.5-1.6,2.4-1.6,2.4c0,0,1.6-1.5,4.3-3.1c0.4-0.2,0.8-0.5,1.2-0.7c3.1-1.1,6.2-2,9-2.7c-1.5,1.1-2.9,2.3-4.4,3.5
	c-0.3,0.2-0.7,0.4-1,0.6l-11.3,6.4c-1.7,1-3.3,1.9-4.9,2.9c-0.4,0.3-0.9,0.5-1.3,0.8c-4.9,3-10.8,7.1-16.4,11.3
	C17,292.7,7,301.8,7,301.8c0,0,11.7-6.9,24.2-12.8c6.2-3,12.7-5.7,17.7-7.6c5.1-1.9,8.7-3,9.4-3.3c1.1-0.4,2-1.2,2.6-2.1
	c0.5-0.1,1-0.2,1.4-0.3c-0.5,0.5-1,1-1.6,1.5c-0.2,0.2-0.4,0.3-0.6,0.5c-18.6,9.2-33.4,21.8-33.4,21.8c0,0,7.9-5,19-10.2
	c-2.2,1.2-4.3,2.4-6.2,3.6c-8.1,4.9-12.8,9-12.8,9c0,0,5.2-3.5,13.7-7.4c0.1,0,0.2-0.1,0.3-0.1c-10,6.6-17.9,13.1-17.9,13.1
	c0,0,11.2-5.8,23.5-10.4c-0.3,0.6-0.5,0.9-0.4,0.9c0,0,0.4-0.4,1.1-1.1c0.2-0.1,0.3-0.1,0.5-0.2c3.1-1.1,6.2-2.2,9.2-3.2
	C51.7,297.7,46,301,46,301c0,0,1.2-0.1,3-0.4c-1.7,0.9-3.4,1.9-5,3c-4.8,3.1-9.1,6.8-11.8,10c-2.7,3.2-3.8,5.7-3.8,5.7
	c0,0,1.7-2.1,5-4.4c1.8-1.3,4.2-2.6,6.8-3.8c-1,1.4-1.9,2.7-2.8,4.1c-1.6,1.1-2.7,1.7-2.7,1.7c0,0,0.7-0.1,1.8-0.4
	c-1.5,2.5-2.9,4.9-3.9,6.9c-1.6,3.1-2.4,5.4-2.6,6c-1.3,1.4-2.5,2.6-3.4,3.7c-5.2,3.9-9.8,7.8-13.2,11.5c-6.3,6.6-8.9,12.1-8.9,12
	c0,0.1,3.3-5,10.1-10.7c3.2-2.7,7.2-5.6,11.7-8.3c-0.7,0.5-1.1,0.7-1.1,0.7c0,0,2.2-0.6,5.4-1.5c-0.1,0.2-0.3,0.4-0.4,0.6
	c-2.8,4.5-4.8,9.5-5.6,13.6c-0.4,0.1-0.8,0.3-1.1,0.5c-3.7,1.4-6.3,1.9-6.3,2c0,0,2.6,0.2,6.7-0.3c0.1,0,0.2,0,0.4-0.1
	c-0.1,1.2-0.1,2.3,0,3.2c-1.2,1.1-2.3,2.1-3.4,3.1c-3.4,3.2-6,6-7.7,8.1c-1.7,2.1-2.4,3.5-2.4,3.4c0,0,0.9-1.3,2.8-3.1
	c1.9-1.9,4.8-4.3,8.4-7.1c0.9-0.7,1.8-1.3,2.8-2c0.2,0.7,0.4,1.1,0.4,1.1c0,0-0.1-0.5-0.1-1.3c2.1-1.5,4.4-3.1,6.8-4.7
	c-1.5,3.4-2.5,6.7-2.9,9.4c-0.6,3.1-0.6,5.3-0.6,5.9c-3.8,3-7,6.4-9,9.2c-2.5,3.5-3.7,6.1-3.7,6.1c0,0,1.8-2.2,5-4.9
	c2.5-2.1,6-4.4,9.9-6.2c-0.9,0.9-1.9,1.8-2.9,2.7c-5.9,5.7-11.6,11.2-16.1,15c-4.5,3.9-7.9,6-7.8,6c0,0,3.6-1.6,8.8-4.6
	c5.2-3,11.9-7.6,18.6-12.1c1.8-1.2,3.7-2.5,5.5-3.7c-0.5,0.5-0.9,1.1-1.4,1.6c-4.8,5.7-9.5,11.1-13.4,14.7c-3.9,3.7-7,5.6-7,5.6
	c0,0,3.4-1.3,8-4.2c0.9-0.5,1.8-1.2,2.8-1.8c-1.4,2.7-2,4.5-2,4.5c0,0,1.3-2.3,3.9-5.7c3.7-2.6,7.7-5.8,11.7-9.1
	c3.6-2.9,7.1-5.7,10.5-8.1c-1.2,1.3-2.2,2.2-2.2,2.2c0,0,1.3-0.1,3.3-0.3c-0.2,0.2-0.4,0.5-0.6,0.7c-2.2,2.1-4.3,4.3-6.4,6.5
	c-7.2,7.9-13.2,16.4-17,23c-3.9,6.7-5.6,11.5-5.6,11.5c0,0,2.3-4.5,7-10.5c2.3-2.9,5.1-6.2,8.3-9.5c-3.5,6.8-6,13.5-7.1,19.3
	c-2,9.5-0.9,15.8-1,15.8c0.1,0-0.3-6.4,2.7-15.3c1.8-5.6,5-12,9.2-18.3c2.3-1.8,6.1-4.6,9.9-7.4c1.2-0.9,2.4-1.7,3.6-2.5
	c-1.4,3.4-3.1,7.8-4.5,12.2l-3.2,9.6c-1.6,3-3,5.8-4.1,8.5c-3.7,8.7-4.7,14.9-4.8,14.8c0,0,1.8-6,6.3-14.1c3.2-5.9,8.1-12.6,14-19.1
	c-0.2,0.3-0.3,0.5-0.4,0.8c-0.2,0.5-0.5,3.3-2.1,7.2c-1.5,3.9-4.4,8.8-7.7,13.5c-3.3,4.7-7,9.1-9.7,12.5l-4.5,5.6l5.7-4.3
	c3.4-2.6,8.1-6,12.6-10c2.2-1.9,4.3-3.9,6.3-6c-0.5,2-1,4.1-1.4,6.1c-1.7,8-2.5,15.8-2.5,15.8c0,0,1.6-3.3,4-7.5
	c-0.5,1.4-0.9,2.8-1.2,4c-1.3,2.6-2.4,5.1-3.2,7.5c-3.2,8.9-3.5,15.1-3.5,15.1c0.1,0,1-6.1,5.1-14.4c2.1-4.4,5.2-9.2,8.9-14
	c-1.3,4.3-3,9.4-4.8,14.5c-4.1,11.4-7.7,22.7-7.6,22.7c-0.1-0.1,5.9-9.9,12.5-20c-3.1,6.6-4.6,12.1-4.5,12.1c-0.1,0,4.6-7.3,11-13.7
	c-0.2,1.2-0.4,2.7-0.7,4.4c-0.8,4.3-2.5,9.9-4.7,15.2c-2.2,5.3-5,10.4-7.5,13.9c-2.4,3.6-4.5,5.7-4.4,5.7c0,0,2.4-1.6,5.8-4.5
	c3.3-2.9,7.4-7.3,11-12.3c0.1-0.1,0.2-0.3,0.3-0.4c-0.3,1.3-0.4,2.1-0.4,2.1c0,0,1.1-2.4,3-5.9c0.2-0.3,0.4-0.6,0.6-1
	c0.4-0.6,0.8-1.3,1.2-1.9c0,0.5,0,0.8,0,0.8c0,0,0.1-0.5,0.4-1.5c0.1-0.1,0.1-0.2,0.2-0.4c0.5-0.7,0.9-1.5,1.5-2.3
	c0.3-0.3,0.5-0.7,0.9-1c-1.5,3.9-2.8,7.6-3.6,10.6c-0.4,1.6-0.7,2.9-1,4.1c-2,4.8-3.6,9.5-4.6,13.8c-0.5,2.2-0.9,4.2-1.2,6.2
	c-0.3,0.4-0.5,0.7-0.5,0.7c0,0,0.2-0.1,0.4-0.3c-1.4,10-0.3,16.3-0.4,16.3c0.1,0.1-0.6-7,2-17.5c0.2-0.2,0.5-0.4,0.8-0.7
	c-0.4,3.4-0.4,5.5-0.4,5.5c0,0,0.4-2.7,1.7-6.7c0.2-0.1,0.3-0.3,0.5-0.4c1.4-1.4,3-3.2,4.7-5.2c-0.5,2.2-0.8,4.3-1.2,6.4
	c-1,0.8-1.7,1.1-1.7,1.2c0,0,0.6-0.1,1.6-0.5c-0.7,4.7-1.1,9.2-1.2,12.8c-0.2,5.5,0.4,9.1,0.4,9.1c0,0,0.1-3.6,1.3-8.9
	c1-4.4,2.6-9.9,4.8-15.4c2.9-1.7,6.2-4.2,9.2-7.4c1.2-1.3,2.3-2.7,3.4-4c-0.7,2.5-1.6,5.2-2.6,7.9c-3.1,8.5-6.5,16.7-6.5,16.7
	c0,0,5.8-6.7,11.4-14c1.9-2.4,3.7-5,5.3-7.4c-0.2,1.9-0.6,4.7-1.3,7.8c-0.6,1.1-1.2,2.1-1.9,3.2L86.1,513c-3,5.2-5.1,8.5-5.1,8.5
	c0,0,2.7-2.9,6.5-7.5l6.8-8.4c-0.4,1-0.6,1.6-0.6,1.6c0,0,4.8-4.8,9.2-10.7c0.1-0.2,0.2-0.3,0.3-0.5l-3,9.6
	c-1.7,5.3-3.7,10.3-5.6,13.9c-1.8,3.7-3.3,5.9-3.3,5.9c0,0,2-1.8,4.8-5c2.8-3.1,6.1-7.7,9.2-12.5c2.2-3.4,4.2-6.9,6.1-9.9
	c-0.8,4.1-0.9,7.5-0.9,7.5c0,0,1.4-2.1,3.6-4.6c-0.1,0.5-0.1,1-0.2,1.4c-4.2,6-8,11.8-10.8,16.4c-0.5,0.8-0.9,1.5-1.3,2.3
	c-3.8,2.8-7.4,5.4-10.4,7.4c-5.1,3.6-8.8,5.6-8.8,5.7c0,0,3.9-1.4,9.6-4.1c1.9-0.9,4.1-2,6.3-3.1c-0.5,1.1-0.8,1.6-0.8,1.6
	c0,0,0.5-0.7,1.4-1.9c3-1.5,6.1-3.1,9.4-4.7c-1.1,2.6-2.1,4.2-2,4.2c0,0,1.6-1.5,3.9-4.1c0.5-0.5,1-1.1,1.5-1.8
	c0.1-0.1,0.3-0.1,0.4-0.2c-1.8,6.3-2.7,12.4-3.1,17.1c-0.4,5.8-0.2,9.6-0.3,9.6c0,0,0.5-3.8,2-9.3c1.1-4.1,2.8-9.2,5.2-14.3
	c0.2,6.6,0.8,11.3,0.8,11.6c-1,2.6-2,5-3,6.9c-1.8,3.6-3.4,5.9-3.4,5.9c0,0,1.9-1.7,4.5-4.6c-2.8,6.5-4.5,11-4.5,11
	c0.1,0.1,7.9-12.7,17-24.9c1-1.3,2-2.6,2.9-3.9c-0.2,1.1-0.5,2.2-0.8,3.3c-1.8,7.5-5.6,14.3-5.6,14.3c0,0,6-5,10.7-12
	c2.4-3.4,4.4-7.2,5.8-10.3c0.5-1.1,0.8-2,1.2-2.9c0.5,0.4,0.9,0.7,1.4,1.1c0,0.1-0.1,0.2-0.1,0.2c-0.5,1-2.8,6.9-6,14.5
	c-1.3,1.6-2.5,3.1-3.7,4.6c-5.4,7-8.4,11.9-8.4,11.9c0,0,3.5-4.5,9.6-10.7c-1.7,4.1-3.6,8.4-5.4,12.6c-6.7,15.3-13.8,29.9-13.7,29.9
	c0,0,9.5-13.2,18.6-27.2c4.9-7.4,9.7-15,13.2-20.9c-0.2,1.3-0.3,2.5-0.4,3.6c-1.5,2.7-3,5.5-4.5,8.3c-7.5,14.1-13.5,28.3-13.5,28.3
	c0,0,8.4-12.9,18.1-25.3c0.6-0.7,1.2-1.5,1.7-2.2c-1.9,4.3-4.2,9.1-6.6,13.8c-3.2,6-6.8,11.6-10,15.5c-3.2,3.9-5.7,6.1-5.7,6.1
	c0,0,2.9-1.6,6.9-4.9c4-3.2,8.9-8.2,13.4-13.7c5.8-7.1,11-14.7,14.2-19.5l-0.2,2.8c-0.1,2.4-0.2,4.8-0.1,7c-1.7,3.5-3.1,6.1-3.2,6.1
	c0,0,0.6-0.3,1.4-0.9c-3,6.5-6.2,12.1-6.2,12c0,0,4.1-3.5,8.7-8.1c0,0.1,0,0.1,0,0.1s0-0.1,0-0.2c1-1,2.1-2.1,3.2-3.3
	c0.3-0.4,0.7-0.7,1-1.1c-0.5,1.5-1,3.1-1.4,4.7c-1.6,6.1-2.5,12.1-3,16.8c-0.1,0.2-0.3,0.4-0.4,0.5c-2.9,3.5-5.1,5.6-5,5.6
	c0,0,2.1-1.3,5.2-3.6c-0.4,4.1-0.4,6.8-0.4,6.7c0,0,0.9-3.4,2.5-8.3c3.5-2.8,7.6-6.7,11.6-10.9c3.8-4.2,7.5-8.5,10.5-12
	c0.1,2.1,0.1,3.4,0.1,3.4c0,0,2.3-4.8,5-9.4c0.8-0.9,1.4-1.6,1.7-1.9c0,0.9,0.1,1.7,0.1,2.6c0,0.2,0,0.4,0,0.6
	c-1.9,2.2-4,4.9-6.1,7.6c-4.8,6.1-8.7,12.5-8.7,12.5c0,0,6-4.5,12.4-8.4c0.8-0.5,1.6-1,2.4-1.5c-0.5,3-0.5,5.8,0.2,8.1
	c0.4,1.5,1,2.6,1.5,3.6c-2.4,4.6-4.9,8.9-7,12.1c-2.3,3.6-4,5.9-4,5.9c0,0,2.2-1.8,5.4-4.8c1.7-1.6,3.7-3.7,5.8-5.9
	c-5,6.4-9.6,11.4-9.6,11.4c0,0,8.8-5.6,17.3-12.5c2.1-1.6,4.1-3.3,6-5l-1.5,3.2c-4.5,2.8-7.5,4.7-7.5,4.7c0,0,3.6-1.3,8.9-3.1
	c-2.9,4.6-4.9,7.9-4.9,7.9c0,0,5-4.7,11.2-10c2.8-0.9,5.8-1.8,8.8-2.8c0.9-0.3,1.7-0.5,2.6-0.8c-0.2,2.3-0.3,4.4-0.3,6
	c-2.1,1.7-4,3.3-5.6,4.7c-2.9,2.6-4.7,4.4-4.7,4.4c0,0,2.2-1.3,5.7-2.9c3.5-1.7,8.2-3.8,13-5.7c3.9-1.6,8-3.2,11.4-4.6
	c-2.8,3.6-6,7.6-9.4,11.5c-8.6,10-18.3,18.6-18.3,18.6c0,0,11.3-6.3,22.1-14.5c7-5.2,13.7-11.1,17.9-14.9c0.8-0.5,1.7-1.1,2.5-1.7
	c1.8-1.3,3.6-2.7,5-4c0.1,0,0.2,0,0.3,0.1c-0.1,0.5-0.2,1.1-0.3,1.7c-0.5,2.2-1.8,5.2-3.6,8.1c-3.6,5.7-8.3,11-8.2,11
	c0-0.1,6.2-2.9,12.2-7.1c1.4-1,2.8-2.1,4-3.3c-1.7,1.9-2.8,3.3-2.8,3.3c0-0.1,5.5-2.4,11.3-4.9c0.4-0.2,0.8-0.3,1.1-0.5
	c-0.7,1.5-1.5,3.1-2.3,4.6c-4.3,8.3-7.8,16.7-7.8,16.7c0,0,4.4-5.1,9.8-10.8l10.2-5.1c5.8,2,11.1,2.3,11.1,2.3c0,0-3.1-1.9-6.2-4.7
	c1.4-0.7,2.8-1.3,4.1-1.9c0.1,0,0.1,0.1,0.1,0.1c2.7,1.6,5.7,2.5,8,2.7c0.2,0,0.3,0,0.4,0c-5.7,4-10.4,7-10.4,7
	c0,0,9.5-2.8,19.1-6.5c1-0.4,2.1-0.8,3.1-1.3c2.2,0.9,4.8,1.9,7.4,2.7c-1.6,1.1-2.6,1.8-2.6,1.8c0,0,1.8-0.4,4.5-1.2
	c1.9,0.5,3.7,1.1,5.6,1.5c11.4,2.7,22.5,3.7,22.5,3.7c0,0-9.7-3.4-19.2-8.2c0.5-0.2,1.1-0.4,1.6-0.6c1.3,0.6,2.8,1.3,4.5,1.9
	c5.1,2,11.7,3.5,18.1,4.5c12.9,1.9,25.2,2.3,25.2,2.5c0.1-0.1-11.3-3.2-22.6-7.4c1.8,0.5,3.7,0.8,5.5,1c3.9,0.4,7.5,0.3,10.2,0.2
	l4.5-0.1c0.1-0.1-6.9-2.3-13.2-5.4c-0.6-0.3-1.3-0.7-1.8-1c0.2-0.1,0.3-0.3,0.5-0.4c2.1-1.8,4.2-3.9,5.8-5.8c1.5,1,3.1,2,4.8,2.8
	c0.8,1.1,1.6,2.3,2.5,3.4c3.6,4.9,7.9,8.8,7.9,8.8c0,0-0.4-1.2-0.9-2.9c2.1,2.2,4.3,4,6.2,5.4c3,2.1,5.1,3.1,5.1,3.1
	c0,0-1.8-1.6-3.9-4.4c-1.1-1.4-2.2-3.1-3.3-5c1.2,1,2.3,2,3.6,2.8c3.3,2.4,6.6,4.3,9.1,5.7l4.1,2.4l-2.9-3.7
	c-1.8-2.2-4.2-5.2-6.3-8.3c-2.1-3.1-3.7-6.3-4.5-8.8c-0.6-1.8-0.8-3.1-0.9-3.9c0.5,0.4,1,0.8,1.5,1.2c0.2,0.9,0.6,1.7,1.4,2.4
	c0.5,0.5,3.4,2.8,7.8,4.7c2.2,1,4.8,1.9,7.5,2.7c4.9,2.2,8.4,3.3,8.4,3.4c0,0-1.1-0.8-3-2.1c0.9,0.2,1.8,0.4,2.8,0.5
	c11.2,1.6,21.7,0.8,21.7,0.9c0.1-0.1-10.5-2.1-20.2-6.2c-4.9-2-9.3-4.7-12.3-7.1c-0.1-0.1-0.2-0.2-0.3-0.3c0.9,0,1.8,0,2.7-0.1
	c2.3-0.2,4.6-0.6,6.5-1c3,1.8,5.4,2.7,5.4,2.7c0,0-1-1.3-2.3-3.3c0.5,0.2,1,0.4,1.6,0.6c2.8,2.6,6.1,5.1,9.5,7.3c5,3.2,10,6,13.7,8
	l6.2,3.4l-5.2-4.8c-2.9-2.7-6.8-6.2-10.4-10c4.6,0.9,7.6,1.2,7.6,1.3c0.1,0-4-1.2-9.7-3.7c-2.4-2.7-4.5-5.5-6.1-8
	c1-0.2,1.5-0.3,1.5-0.3c0,0-0.7-0.2-1.9-0.4c-0.2-0.4-0.5-0.8-0.7-1.1c1.4,0.2,2.6,0.1,3.6,0c3.3,2.8,7.8,5.2,12.3,7.1
	c1.1,0.7,2.2,1.3,3.3,1.9c7.4,4.1,14.9,7.3,20.4,9.8c5.5,2.4,9.1,4.2,9.1,4.2s-3.3-2.3-8.3-5.7c-2-1.4-4.4-2.9-6.9-4.6
	c2,0.5,3.2,0.7,3.2,0.8c0.1-0.1-6.2-3.3-12.8-7.8c-0.5-0.4-1.1-0.8-1.7-1.3c-2.6-2-4.9-4.2-7.1-6.4c6.5,2.2,12.9,3.4,17.9,4.1
	c1.8,0.2,3.4,0.4,4.8,0.6c3.2,3.2,5.3,5.3,5.3,5.3c0,0-1.3-2-3.4-5.1c2.7,0.2,4.2,0.3,4.2,0.3c0,0-1.8-0.4-4.8-1.2
	c-2.4-3.5-5.6-8.2-9.2-13.3c0.9,0.6,1.8,1.3,2.8,1.9c4.7,3,9.7,5.1,13.6,6c3.9,0.9,6.4,0.9,6.4,1c0,0-2.5-0.8-5.8-2.6
	c-3.1-1.7-6.6-4.4-9.8-7.7c6.6,3.8,13.3,6.5,18.5,8.2c5.3,1.7,9,2.2,9,2.1c0,0-3.5-1.1-8.3-3.7c-0.4-0.2-0.8-0.4-1.1-0.7
	c0.1-1.2,0.2-3,0.4-5.1c0.3-3.2,1-7.2,1.9-11.4c7.4,2.6,12.8,4,12.7,4.1c0.1-0.1-5.3-2.7-12.1-6.8c0.1-0.5,0.2-0.9,0.3-1.4
	c0.5-2.2,1.1-4.3,1.6-6.4c9.9,6,19.8,8.9,19.8,9c0.1,0-4.3-2.7-9.6-6.9c4.2,0.9,8.3,1.5,11.8,1.9l2.6,3.4l-1.4-3.3
	c2.3,0.3,4.3,0.4,5.9,0.6c2.2,0.8,3.5,1.1,3.5,1.1c0,0-0.7-0.4-1.9-1c1.7,0.1,2.7,0.2,2.7,0.2c0,0-2-0.6-5.2-1.6
	c-1.1-0.7-2.3-1.4-3.7-2.3c-1.2-0.8-2.5-1.7-3.8-2.7c-1.6-3.7-3.3-8.2-4.6-12.7c-1.6-5.6-2.2-11.2-2.1-15.6c0-0.8,0-1.5,0.1-2.2
	c0.5,1.9,1.1,4,1.9,5.9c0.3,0.7,0.6,1.3,0.9,1.9c-0.2,3.3-0.2,5.4-0.2,5.4c0,0,0.4-1.3,1.2-3.5c1.4,2.6,3,4.8,4.5,6.3
	c2.2,2.3,3.9,3.5,3.9,3.5c0,0-1.2-1.7-2.4-4.5c-1.2-2.8-2.2-6.6-2.4-10.5c-0.1-1.5,0-3,0.1-4.4c0,0,0,0,0-0.1
	c1.9,0.3,3.1,0.4,3.1,0.4c0,0-1-0.9-2.4-2.2c0.3-0.8,0.7-1.6,1-2.5c0.1-0.2,0.2-0.5,0.3-0.7c2.9,2.7,6.3,4.8,9.7,6.5
	c2.3,1.1,4.7,2.1,7,2.9c0.2,0.3,0.4,0.6,0.6,0.8c2.1,2.9,3.7,4.6,3.7,4.6c0,0-0.8-1.8-1.8-4.6c12.2,3.9,22.6,3.8,22.5,3.8
	c0,0-4-0.7-9.6-2.6c-4.3-1.4-9.6-3.6-14.6-6.6c-0.7-2.4-1.4-5.1-2-7.8c-1.1-5.1-2.2-10.4-3-14.3c2.8,5.6,6,10.7,7.8,13.7
	c0.1,0.2,0.2,0.4,0.3,0.6c2.1,4.2,3.8,6.7,3.7,6.7c0,0-1.1-2.9-2.1-7.3c-1.1-4.5-2-10.5-2.3-16.6c-0.2-3.3-0.2-6.5-0.1-9.6
	c0.2,0,0.3,0,0.5,0c0.4,7.8,0.8,13.7,0.8,13.7c0,0,0.9-5.8,2.2-13.5c0.1,0,0.2,0,0.2,0c0.1,1.9,0.3,3.8,0.6,5.8
	c0.7,6.1,2.2,12,3.7,16.1c1.5,4.2,2.9,6.7,2.8,6.7c0,0-0.7-2.8-1.1-7.1c-0.5-4.3-0.5-10,0.1-15.8c0.2-1.9,0.5-3.7,0.8-5.5
	c7.8,0.1,15.2-0.2,21-0.5l11.1-0.5l-11.1-1.2c-5.6-0.6-12.8-1.4-20.2-2.7c0.4-2,0.8-3.9,1.1-5.7c1.8,2.4,3.1,3.9,3,4
	c0.1,0-1.1-3.2-2.3-7.6c0.3-1.5,0.6-2.8,0.8-3.7c1.6-0.2,3.2-0.4,4.7-0.6c2.6,7,4.8,11.9,4.7,11.9c0,0-1.1-5.1-2.1-12.2
	c1-0.1,2-0.2,3-0.2c8.1-0.6,13.5-0.3,13.5-0.3c0,0-5.3-1-13.5-1.4c-1.1-0.1-2.2-0.1-3.3-0.2c-0.2-1.5-0.4-3-0.6-4.5
	c2.7,2.2,4.7,3.7,4.6,3.7c0.1,0-2.5-4.5-5-9.7c1.2-0.3,1.9-0.7,1.9-0.7c0,0-1-0.4-2.2-1.2c0-0.1,0-0.2,0-0.3
	c-0.1-1.3-0.2-2.6-0.2-3.9c1.5,1.6,3,3.1,4.4,4.2c3,2.5,5.3,3.6,5.3,3.6c0,0-1.9-1.7-4-4.8c-1.3-1.8-2.6-4.2-3.7-6.8
	c2.8,0.1,4.5,0.3,4.5,0.4c0,0-2-0.9-5.2-1.9c-0.5-1.2-1-2.4-1.4-3.7c0-0.9,0-1.8,0.1-2.7c1,0.3,1.7,0.3,1.7,0.3c0,0-0.6-0.7-1.1-1.8
	c-0.2-0.5-0.3-1.1-0.4-1.7c0-0.1,0-0.1,0-0.2c0-0.6,0.1-1.2,0.1-1.7c0-0.1,0-0.2,0.1-0.3c0.8-2.7,3.1-3.8,3.2-4
	c0.1-0.2-0.9-1.3-2.5-2.5c0-0.3,0.1-0.5,0.1-0.7c1.7,1.9,3.4,3.6,4.9,4.8c2.1,1.7,3.7,2.5,3.6,2.6c0,0-1.1-1.4-2.3-3.7
	c-1-1.8-2-4.3-2.8-6.9c3.2-1.1,6.2-2.2,9-3.3c7.1,5.5,14.3,10.2,19.6,13.9c5.6,3.8,9.1,6.4,9.1,6.4c0,0-3.1-3.2-8-7.8
	c-4.3-4-9.9-9.2-15.3-14.8c5.9-2.5,9.8-4.5,9.8-4.5c0,0-4.7,1.3-11.5,2.8c-0.2-0.3-0.5-0.5-0.7-0.8c-0.5-0.6-1.1-1.1-1.6-1.7
	c1.2-0.2,1.9-0.3,1.9-0.3c0,0-0.8,0-2.3-0.1c-2.5-2.7-4.8-5.5-6.9-8.3c3.4,0.4,6.9,1.3,6.8,1.2l-1.6-2c-0.3-0.3-0.6-0.7-0.9-1.1
	c0.8-0.3,1.5-0.6,2.3-1c0.1,0,0.2,0,0.2,0c0,0-0.1-0.1-0.1-0.1c4.2-1.9,8.4-3.9,12.6-6.1c8.5-4.5,16.7-9.2,22.8-12.7l10.1-5.8
	l-10.9,4.2c-6.5,2.6-15.3,6-24.2,9.2c-3.5,1.2-6.9,2.3-10.3,3.3c0,0-0.5-0.6-1.1-1.7c2.7-0.9,5.4-1.8,8.1-2.8
	c9.1-3.4,17.9-7.2,24.2-10.5c6.3-3.2,10.3-5.8,10.3-5.7c0,0-4.3,1.9-11,4.1c-6.7,2.3-15.7,4.7-25.1,6.7c-3.3,0.7-6.6,1.3-9.9,1.9
	c-0.7-1.6-1.3-3.4-1.7-5.2c-0.3-1.2-0.5-2.5-0.7-3.7c0.8-0.5,1.5-0.9,2.3-1.4c2,1.1,3.9,2,5.5,2.6c2.8,1,4.7,1.3,4.7,1.3
	c0,0-1.7-0.9-3.8-2.8c-1-0.8-2.1-1.9-3.1-3.1c3.9-2.4,7.4-4.6,10.4-6.6c5.2-3.4,8.5-5.8,8.5-5.8c0,0-3.7,1.8-9.3,4.3
	c-0.9,0.4-1.8,0.8-2.8,1.2c-0.7-0.5-4.5-2.4-7.8-4.7c-1.1-0.8-2-1.6-2.8-2.4c-0.3-0.8-0.5-1.7-0.7-2.6c-0.8-3.1-1-6-1-7.5
	c3.3,1.4,6.5,2.6,8.8,3.7c2.8,1.3,4.4,2.5,4.4,2.5c0,0-1.2-1.7-3.4-3.9c-2.2-2.2-5.4-4.8-8.3-7.5c2.3-1.6,4.7-3.1,6.9-4.6
	c2,2.6,3.8,5.1,5.3,7.1c2.6,3.5,4.4,5.7,4.3,5.7c0,0-1.2-2.6-2.8-6.6c-1-2.4-2.2-5.3-3.5-8.4c8.2-5.3,14.3-8.9,14.3-8.9
	c0,0-6.6,2.6-15.5,6.3c-0.6-1.2-1.2-2.5-1.8-3.7c-1.1-2.3-2.4-4.6-3.8-6.8c3.1-1,5.2-1.4,5.1-1.4c0,0-2.4-0.2-6,0
	c-0.7-1.1-1.4-2.1-2.2-3.1c1.6,1,2.7,1.5,2.6,1.5c0,0-1.3-1.4-2.9-3.7c-1.3-1.9-2.7-4.5-4.3-7.2c2.7-4,5.6-7.3,5.6-7.4
	c0,0-3.6,1.4-7.9,3.5c0,0,0,0,0,0c1-0.7,1.5-1.1,1.5-1.1c0,0-0.6,0.3-1.7,0.8c-0.3-0.4-0.5-0.8-0.8-1.2c1.5-2.2,3.4-4.9,5.6-7.9
	c0.2-0.3,0.5-0.6,0.7-0.9c0.4,0.2,0.8,0.3,1.1,0.5c2.5,1.2,3.9,2.4,3.9,2.4c0,0-0.9-1.6-2.9-3.8c-0.3-0.3-0.6-0.5-0.8-0.8
	c0-0.1,0.1-0.1,0.1-0.1c2.4-1.2,4.9-2.4,7.4-3.6c14.9-6.6,30.5-10.7,30.4-10.8c0,0.1-14.8,1.4-30.4,5.1c3.6-4.2,7.4-8.6,11.5-12.9
	 M565.6,367.1c-1.8,0.5-3.5,1-5.2,1.5c-0.2-0.5-0.4-1-0.6-1.6c1.2-0.4,2.5-0.8,3.7-1.2C564.8,366.6,565.6,367.1,565.6,367.1z
	 M554.9,369.9c-0.1,0-0.1,0-0.2,0c0-0.5,0.1-0.9,0.1-1.4c0,0,0,0,0.1,0c0.3,0.4,0.7,0.8,1.1,1.2
	C555.6,369.8,555.3,369.9,554.9,369.9z M364.2,576.2c-0.1-0.1-0.2-0.2-0.2-0.3c0.2-0.3,0.5-0.6,0.7-0.8c-0.1,0.2-0.1,0.4-0.2,0.6
	C364.3,575.9,364.2,576.1,364.2,576.2z M348.4,578c0,0,0.1,0,0.1-0.1c1.3-0.9,2.4-1.7,3.2-2.3c0,0.4,0.1,0.8,0.2,1.2
	c0.1,0.4,0.9,1.7,2.2,3.1c-0.2,0.3-0.4,0.6-0.6,0.9C351.6,579.8,349.9,578.9,348.4,578z M91.6,205.2c-1.4-0.2-2.9-0.4-4.5-0.7
	c3.5-0.3,7.1-0.6,10.6-0.8c-0.2,0.5-0.5,1-0.7,1.5c-0.4,0.2-0.8,0.4-1.1,0.6L91.6,205.2z M556.6,313.8c-1.4-1.6-2.5-3.2-2.9-4.4
	c-0.8-2.2-0.3-3.2-0.4-3.5c-0.1-0.6-1.3-1.7-3.1-2.5c1-0.5,2-1,2.9-1.5c0.6,0.5,1.2,1.1,1.8,1.6c2.4,2.2,4.5,4.3,6.2,5.8
	c0.8,0.7,1.5,1.2,2,1.5C561.1,311.8,558.9,312.7,556.6,313.8z M555.5,321.3c-0.3,0-0.6,0.1-0.9,0.1c0.1-0.1,0.3-0.2,0.4-0.3
	C555.3,321.1,555.4,321.2,555.5,321.3z M126.4,154.7c-0.1,0.1-0.2,0.2-0.3,0.4c0-0.2,0-0.3-0.1-0.5
	C126.2,154.6,126.3,154.6,126.4,154.7z M508.9,175.9c-0.9,0-1.9,0-2.9,0c2.3-0.5,4.4-1,6.1-1.4C511,175,510,175.5,508.9,175.9z
	 M514.5,173.5c-0.1,0-0.3-0.1-0.5-0.1c0.2,0,0.5,0,0.7-0.1c0,0,0.1,0,0.1,0C514.8,173.3,514.7,173.4,514.5,173.5
	C514.6,173.4,514.5,173.4,514.5,173.5z M512.1,172.9c0,0-0.1,0-0.1,0C512,172.8,512,172.8,512.1,172.9
	C512.1,172.8,512.1,172.9,512.1,172.9z M547.7,297.7c0.3,0.2,0.6,0.4,0.9,0.5c-0.2,0.1-0.5,0.1-0.7,0.1
	C547.9,298.2,547.8,297.9,547.7,297.7z M552,262.4c-1.1-0.5-2.4-0.8-3.6-1c3.8-2.2,7.7-4,11.1-5.5c-2.4,2.4-4.7,4.7-6.8,6.9
	C552.5,262.6,552.2,262.5,552,262.4z M119,152.9c-0.2,0.6-0.3,1.3-0.5,1.9c-1.2-0.2-2.5-0.3-3.9-0.4c0-0.3-0.1-0.7-0.1-1.1
	C116.1,153.1,117.6,153,119,152.9z M532.7,232.5c1.9-0.9,4.1-1.8,6.4-2.9c0.1,0,0.2,0,0.3,0c-2.9,1.8-5.8,3.6-8.3,5.4
	C531.5,234.2,532.1,233.3,532.7,232.5z M310.5,37.6c0.1-0.2,0.1-0.4,0.2-0.5c1,3.7,1.4,7.3,1.5,10.5c-1.1,0.3-2.2,0.7-3.4,1
	c0.5-2.8,0.8-5.6,0.8-8.2C309.8,39.4,310.2,38.5,310.5,37.6z M239.8,62.8c-1.6,0.7-3.3,1.3-4.8,1.7c-0.6-2.2-1.3-4.5-1.9-6.9
	c0-0.1,0-0.2,0-0.2c1.6,1.2,3.2,2.4,4.8,3.7C238.5,61.6,239.1,62.2,239.8,62.8z M199,49.4c0.3,1.8,0.5,3.7,0.8,5.6
	c-1.4-3-2.7-6.5-3.2-10.2C197.4,46.2,198.2,47.8,199,49.4z M56.7,342.7c0,0.6-0.1,1.3-0.1,1.9c-0.4-0.6-0.7-1.1-1.1-1.3
	C55.9,343.1,56.3,342.9,56.7,342.7z M356.3,581.8c0.3,0.2,0.7,0.5,1.1,0.7c0,0,0.1,0,0.1,0.1c-0.5-0.2-1-0.4-1.4-0.7
	C356.1,581.9,356.2,581.8,356.3,581.8z M387.1,568.9c-0.1-0.4-0.1-0.8-0.2-1.2c0.6,0.3,1.1,0.6,1.7,0.8
	C388.1,568.6,387.6,568.7,387.1,568.9z M489.4,502c-0.2,0-0.5,0-0.8,0c0,0,0,0,0-0.1c0.3-0.3,0.7-0.6,1-1
	C489.5,501.3,489.5,501.6,489.4,502z M552.8,385.2c0.1-0.7,0.2-1.4,0.3-2.2c1.1,1.1,2.3,2.1,3.4,3.2c-1.1,0.1-2.3,0.1-3.5,0.2
	C553,386,552.9,385.6,552.8,385.2z M570.8,340c-2.7,1.2-5.8,2.4-9,3.7c-0.3-0.5-0.7-1-1-1.5c-0.4-0.6-0.8-1.2-1.2-1.9
	c0.7,0.1,1.3,0.1,2,0.1C565.9,340.6,569.6,340.1,570.8,340z M563.5,310.7c-0.4-0.5-0.9-1.2-1.4-2.2c-0.7-1.2-1.5-2.7-2.4-4.5
	c1.1,1.1,2.1,2.3,3.1,3.5c0.7,0.8,1.4,1.7,2.1,2.6C564.5,310.2,564,310.4,563.5,310.7z M477.1,109c3.8-1.2,6.8-2.2,8.8-2.9
	c-0.5,0.3-2.3,1.2-4.9,2.4c-0.9,0.1-2.2,0.3-3.9,0.7c-2.5,0.6-5.7,1.9-8.9,3.7l1-1.5C472.1,110.6,474.7,109.8,477.1,109z
	 M449.5,84.3c0.7-0.5,1.4-1,2.1-1.5c-0.5,0.5-1,0.9-1.5,1.4C449.9,84.2,449.7,84.2,449.5,84.3z M403.3,46.3c-0.8,1.5-2.3,4-4.6,6.7
	c-3.8,4.5-10.4,9-17.8,11.6c-0.2,0.1-0.5,0.2-0.7,0.2c1.6-1.3,3.3-2.8,5.1-4.3c2.9-1.8,5.8-3.9,8.5-6.2c0.8-0.7,1.6-1.4,2.3-2.2
	C398.7,50,401.2,48.1,403.3,46.3z M361,47.4c0,1,0,2.1-0.1,3.2c-1.7,1-3.4,2-4.9,2.7c-0.2,0.1-0.4,0.2-0.6,0.3
	c1.6-2.3,3.5-4.7,5.5-7.2C361,46.7,361,47,361,47.4z M351.9,37.4c1.4-1.1,2.5-1.9,3.3-2.4c-1.9,2.4-3.9,4.5-5.7,6.3
	c-3.9,3.9-7.1,6-7.7,6.6c-0.1,0.1-0.2,0.2-0.3,0.3c0.6-0.8,1.3-1.7,2-2.5C346.3,42.4,349.4,39.4,351.9,37.4z M305,24.5
	c1.1,1.7,2.2,3.5,3.1,5.4c-0.1,0.4-0.1,0.8-0.2,1.2c-0.8,1.4-1.6,2.8-2.5,4.2c-1.8,3-3.7,5.8-5.5,8.3c1-4.8,1.8-10.1,2.8-15.2
	c0.3-1.7,0.7-3.3,1.1-4.9C304.2,23.9,304.6,24.2,305,24.5z M281.9,40.2c-0.7,4.4-2,8.6-3.4,12.5c0-0.2-0.1-0.3-0.1-0.5
	c-1-5.5-1.1-13-0.4-20.4c0.1-1.2,0.2-2.4,0.4-3.6c0.8-2.1,1.6-4,2.3-5.8c0.3-0.6,0.5-1.2,0.7-1.8C282.9,25.9,283.1,33.1,281.9,40.2z
	 M280.9,18.8c-0.5,0.7-0.9,1.4-1.4,2.2c0.2-1.4,0.5-2.7,0.8-3.9C280.5,17.6,280.7,18.2,280.9,18.8z M230,33.7
	c0.1-0.8,0.2-1.5,0.3-2.1c1.7,2.4,3.7,5.6,5.8,9.1c-3.6-2.7-6.2-3.8-6.2-3.9c0,0,3,2.1,6.5,6.3c1.4,1.6,2.8,3.6,4.1,5.8
	c1,2,1.9,4,2.8,6c0,0.2,0,0.5-0.1,0.7c-2.5-2.1-4.5-4.7-5.8-6.9c-1.3-2.2-1.9-3.9-1.9-3.9c0,0-0.1,1.8,0.3,4.5
	c0.2,1.4,0.6,3.2,1.2,5c-1.9-1-3.7-1.9-5.5-2.7c-0.5-1.8-1-3.6-1.4-5.4c0-0.2-0.1-0.3-0.1-0.5C229.5,41.3,229.6,37.1,230,33.7z
	 M217.6,48.2c2.2,1.1,4.7,2.4,7.2,3.9c0,0.1,0,0.2,0,0.3c-0.1,1.7-0.1,3.4-0.1,5.1c-2-1.6-4.3-3.2-6.8-4.9c-0.2-1.4-0.4-2.9-0.6-4.5
	C217.4,48.1,217.5,48.1,217.6,48.2z M197.2,41c-0.2-0.1-0.3-0.1-0.5-0.2c-0.1-0.1-0.2-0.2-0.3-0.3c0-0.3,0-0.6,0-1
	C196.7,40,196.9,40.5,197.2,41z M119.7,144c-1.6,0.4-3.2,0.8-4.9,1.3c0.1-0.6,0.1-1.2,0.2-1.8c0-0.3,0.1-0.6,0.2-0.9
	C116.8,143,118.3,143.5,119.7,144z M81.9,171.4c0.7-1.5,1.8-3.6,3.8-5.8c1-1.1,2.2-2.2,3.6-3.2c0.3,0,0.6,0,0.8,0
	c7.7,0,15.4,0.4,21.1,1.4c3,0.5,5.2,1.2,6.7,1.8c-3.4,0.7-7,1.8-10.7,3c-4.1-0.1-8.9,0.1-13.6,0.7C89.4,169.7,85.3,170.5,81.9,171.4
	z M100.8,176.7c0.6-0.1,1.1-0.2,1.7-0.3c2,0.5,4,1,5.7,1.5c0,0,0,0,0.1,0c-0.4,0.1-0.8,0.2-1.3,0.4c-4.2,0.3-8.6,0.6-13,1.1
	c-1.3,0-2.6,0-3.9,0.1C93.5,178.4,97.2,177.5,100.8,176.7z M92.2,187.3c-0.9-0.4-1.9-0.8-2.8-1.2c2.5-0.1,4.9-0.1,7.4-0.2
	c-1.2,0.5-2.4,1.1-3.6,1.7C92.8,187.5,92.5,187.4,92.2,187.3z M34.2,324.4c2.6-3,6.5-6.8,10.6-10.1c0.1-0.1,0.2-0.2,0.3-0.3
	c1.7-0.6,3.5-1.2,5.3-1.9c3.9-1.4,7.7-2.9,10.7-3.9c0.2-0.1,0.4-0.1,0.7-0.2c0,0.2-0.1,0.3-0.1,0.5c-0.4,0-0.7,0.1-1.1,0.2
	c-0.7,0.2-3.9,1.5-7.9,3.7c-4.1,2.2-9,5.4-13.4,8.9c-3.4,2.6-6.4,5.4-8.9,7.9C30.9,328.4,32.2,326.6,34.2,324.4z M34.7,340.9
	c3.8-3.8,8.2-6.9,11.8-8.9c1-0.3,2-0.6,3-0.9c-4.6,4.4-11.3,11.1-15.3,15.1c-2.2,1.4-4.4,2.5-6.5,3.5
	C29.4,346.8,31.8,343.7,34.7,340.9z M26.1,353.2c0-0.1,0.1-0.1,0.1-0.2c0.9-0.1,1.7-0.3,2.7-0.5c-1.2,1-2.3,2-3.4,3
	C25.6,354.8,25.8,354,26.1,353.2z M30.7,363.9c1.6-3.2,4.3-7.1,7.6-10.5c0.1-0.1,0.3-0.3,0.4-0.4c3.8,0.3,9.5,0.6,13.5,0.8
	c-1.7,1.1-3.5,2.2-5.2,3.4c-4.2,2.8-8.3,5.4-11.5,7.2c-3.2,1.8-5.5,2.7-5.5,2.7c0,0,0.6-0.1,1.6-0.2c-0.2,0.1-0.4,0.3-0.6,0.4
	c-0.9,0.6-1.7,1.3-2.6,2C28.7,368.6,29.3,366.5,30.7,363.9z M61.5,397.4c0.1,0.5,0.3,1.1,0.4,1.6c-1.2,0.2-2.3,0.6-3.1,1.2
	C59.7,399.2,60.6,398.3,61.5,397.4z M69.3,491.1c0.2-0.7,0.4-1.5,0.7-2.3c0.1-0.2,0.2-0.4,0.2-0.6c-0.1,0.7-0.3,1.4-0.4,2
	C69.7,490.5,69.5,490.8,69.3,491.1z M112.2,511.1c-0.3,1.1-0.5,2.1-0.8,3.1c-0.4,0.3-0.8,0.5-1.1,0.8c-1.4,1-2.8,2-4.1,3
	C107.9,515.8,109.9,513.5,112.2,511.1z M120.3,516.3c0.4-0.2,0.8-0.4,1.2-0.6c-0.6,3.8-1.4,8.1-2.5,12.3c-0.6,2.4-1.4,4.7-2.2,6.9
	C116.9,534.1,117.8,525.6,120.3,516.3z M169.5,564.9c2.7-5.5,6-10.5,9-14.3c-0.3,0.7-0.5,1.3-0.8,2c-2.2,4.2-4.8,9.1-7.6,13.9
	c-1.5,2.7-3.1,5.2-4.7,7.6C166.5,571.2,167.9,568,169.5,564.9z M194.1,571.2c-0.1-3.3,1.3-7.2,3.5-11.1c2.6-1.5,4.8-2.7,5.7-3.3
	c-2.3,4.4-5.4,10.6-8.5,16.6c-0.1,0.2-0.2,0.3-0.3,0.5C194.2,573.2,194.1,572.3,194.1,571.2z M207.5,578.9l4.4-4.2
	c-0.6,0.8-1.1,1.7-1.7,2.5C209.3,577.8,208.4,578.3,207.5,578.9z M230.6,577.2c-1.1,0.9-2.3,1.8-3.4,2.6c0.8-1.7,1.7-3.7,2.9-5.7
	c2.6-0.8,5.1-1.5,7.4-2.2L230.6,577.2z M273.8,577.2c0.4-0.6,0.7-1.1,1-1.6c0.3-0.3,0.6-0.6,0.9-0.9c0,0.1,0,0.3-0.1,0.4
	c-0.4,0.5-0.8,0.9-1.2,1.4C274.2,576.8,274,577,273.8,577.2z M289.5,579.4C289.5,579.4,289.5,579.4,289.5,579.4
	c0.7-0.9,1.3-1.6,1.9-2.3c0.1,0.1,0.2,0.2,0.4,0.3C291,578.1,290.3,578.8,289.5,579.4z M306.4,582.8c-1.2-0.8-2.4-2-3.5-3.4
	c0.9-0.4,1.8-0.8,2.7-1.1c0.8-0.3,1.5-0.6,2.2-0.8c0.3,0.6,0.8,1.2,1.4,1.6c0.3,0.2,1.1,0.7,2.4,1.5c-1.3,1-2.7,2-4,2.9
	C307.2,583.3,306.8,583.1,306.4,582.8z M327.7,579.2c0.2-0.1,0.4-0.2,0.6-0.3c1-0.5,1.8-1,2.6-1.5c0.3,1.1,1,2.2,2,3.1
	c-0.4,0.4-0.8,0.7-1.3,1.1C330.3,580.8,329,580,327.7,579.2z M410.6,563.9c0.4,0.1,0.8,0.1,1.1,0.2c0.1,0.1,0.3,0.2,0.4,0.3
	c0.2,0.2,0.4,0.4,0.6,0.5C412,564.6,411.2,564.3,410.6,563.9z M462,561.7c-6.2-1.9-14.5-4.9-21.6-9.7c-1.6-1.1-3.1-2.2-4.6-3.5
	c-0.8-1.7-1.4-3.2-1.9-4.4c0.1-0.1,0.1-0.3,0.2-0.5c1.9,1.4,4.9,3.4,7.9,5.1c4.8,2.7,9.7,4.6,9.7,4.6c0,0-3.1-4-5.7-8.4
	c1.6,1.4,3.3,2.9,4.9,4.4c0.6,0.6,1.2,1.1,1.8,1.7c-0.2,1.9-0.2,3.1-0.3,3.1c0,0,0.4-0.9,1-2.4c4.2,3.9,8.2,7.8,11.3,10.9
	C464.1,562.3,463.1,562,462,561.7z M468.4,543.7c-0.1-0.1-0.1-0.1-0.2-0.2c3.3,0.4,6.3,0.5,8.8,0.7l5,0.3c0.1,1.8,0.3,3.5,0.5,4.9
	c0.3,1.9,0.5,3.5,0.8,4.7C478.7,551.6,473.3,548,468.4,543.7z M481.9,544.2l-4.6-1.7c-3.3-1.2-7.8-2.9-12-4.9
	c-1.4-0.7-2.8-1.4-4.1-2.2c1.3-2.4,2.7-4.6,3.9-6.4c1,0.5,2,1.1,3,1.6c0.2,1.7,0.4,2.8,0.4,2.8c0,0,0.3-0.9,0.9-2.2
	c0.9,0.4,1.7,0.9,2.6,1.3c3.2,1.4,6.4,2.7,9.5,3.9C481.6,539.1,481.7,541.7,481.9,544.2z M474.8,527.7c-0.9-0.7-1.8-1.4-2.7-2.1
	c0.4-0.7,0.7-1.4,1.1-2c0.6-1.1,1.3-2.3,2-3.3c0.2,0.1,0.4,0.3,0.6,0.4c0.3,4.5,0.8,8,0.8,8c0,0,0.8-2.7,2.2-6.1
	c0.2,0.1,0.5,0.3,0.8,0.4c0.7,0.4,1.4,0.7,2.1,1.1c-0.1,2.6-0.1,5.3-0.1,8.1C479.2,530.7,477,529.2,474.8,527.7z M490.7,519.6
	c0.2-0.8,0.4-1.5,0.6-2.2c0.8,0.7,1.6,1.3,2.4,1.9c4,3.2,8.3,5.8,12.2,7.8c-2.3-0.9-4.7-1.9-7-3
	C495.9,522.7,493.2,521.2,490.7,519.6z M497.5,515.2c-1.5-1.7-2.9-3.5-4.2-5.3c0-0.1,0-0.1,0-0.2c0.3-1.8-0.6-3.5-2-4.6
	c0.7-1.3,1.6-2.8,2.5-4.3c0,0.1,0,0.1,0,0.2c0,4.7,0.3,8.5,0.3,8.5c0,0,0.6-1.2,1.4-3c1.1,3,2.4,6,4,8.8c0.9,1.7,1.9,3.3,2.9,4.9
	C500.7,518.7,499.1,517,497.5,515.2z M516.7,484.7c-0.5-0.7-0.9-1.4-1.3-2c0.5-1.1,0.9-2,1.3-3c1.6,3,3.5,6.6,5.4,10.1
	c0.3,0.5,0.5,0.9,0.8,1.4C520.6,489.2,518.4,487,516.7,484.7z M549.7,440.2c-1.2,0-2.5,0-3.8,0c-0.4-1.5-1.5-2.8-3.1-3.5
	c-0.4-2.8-0.4-5.3-0.2-7.3c1,0.3,2,0.6,3.1,0.8c0.2,0.1,0.3,0.3,0.5,0.5c0.2,0.2,0.3,0.3,0.5,0.4
	C547.7,434.3,548.7,437.4,549.7,440.2z M561.5,390.4c-2.3,0.4-4.7,0.8-7.1,1.2c-0.2-0.7-0.3-1.4-0.5-2.1c1.7-0.5,3.4-1,4.9-1.3
	C559.7,388.9,560.6,389.6,561.5,390.4z"/>
<g>

		<radialGradient id="SVGID_2_" cx="-745.9577" cy="-66.8488" r="79.4423" gradientTransform="matrix(-1 0 0 1 -488.7432 325.8828)" gradientUnits="userSpaceOnUse">
		<stop  offset="0" style="stop-color:#ED6A36"/>
		<stop  offset="0.2003" style="stop-color:#E66032"/>
		<stop  offset="0.5191" style="stop-color:#D64A29"/>
		<stop  offset="0.9144" style="stop-color:#BE2726"/>
		<stop  offset="1" style="stop-color:#B92025"/>
	</radialGradient>
	<path fill="url(#SVGID_2_)" d="M336.7,259c0-43.9-35.6-79.4-79.4-79.4c-43.9,0-79.4,35.6-79.4,79.4c0,43.9,35.6,79.4,79.4,79.4
		C301.1,338.5,336.7,302.9,336.7,259z"/>

		<radialGradient id="SVGID_3_" cx="658.6924" cy="-29.3857" r="97.8972" gradientTransform="matrix(1 0 0 1 -384.3643 325.8828)" gradientUnits="userSpaceOnUse">
		<stop  offset="0" style="stop-color:#FFFFFF"/>
		<stop  offset="1" style="stop-color:#F6F6F6"/>
	</radialGradient>
	<path fill="url(#SVGID_3_)" d="M320.8,259c0-35.1-28.5-63.6-63.6-63.6c-35.1,0-63.6,28.5-63.6,63.6c0,35.1,28.4,63.5,63.6,63.5
		C292.3,322.6,320.8,294.1,320.8,259z"/>

		<radialGradient id="SVGID_4_" cx="624.9756" cy="-54.5928" r="46.8938" gradientTransform="matrix(1 0 0 1 -384.3643 325.8828)" gradientUnits="userSpaceOnUse">
		<stop  offset="0" style="stop-color:#585857"/>
		<stop  offset="1" style="stop-color:#3D3D3C"/>
	</radialGradient>
	<path fill="url(#SVGID_4_)" d="M262.9,253.3c0-16.8-13.6-30.4-30.4-30.4c-16.8,0-30.4,13.6-30.4,30.4c0,16.8,13.6,30.4,30.4,30.4
		C249.2,283.8,262.9,270.2,262.9,253.3z"/>

		<radialGradient id="SVGID_5_" cx="2784.8323" cy="1277.3954" r="40.1194" gradientTransform="matrix(0.2011 -0.1966 0.3189 0.37 -722.1261 325.2693)" gradientUnits="userSpaceOnUse">
		<stop  offset="0" style="stop-color:#FFFFFF"/>
		<stop  offset="1" style="stop-color:#F6F6F6"/>
	</radialGradient>
	<path fill="url(#SVGID_5_)" d="M244.2,241c-4.6-5.3-10.6-7.4-13.5-4.5c-2.9,2.9-1.5,9.4,3.1,14.8c4.6,5.3,10.6,7.3,13.5,4.5
		C250.2,252.9,248.8,246.3,244.2,241z"/>
</g>
<g>

		<radialGradient id="SVGID_6_" cx="-916.0732" cy="-66.8488" r="79.443" gradientTransform="matrix(-1 0 0 1 -488.7432 325.8828)" gradientUnits="userSpaceOnUse">
		<stop  offset="0" style="stop-color:#ED6A36"/>
		<stop  offset="0.2003" style="stop-color:#E66032"/>
		<stop  offset="0.5191" style="stop-color:#D64A29"/>
		<stop  offset="0.9144" style="stop-color:#BE2726"/>
		<stop  offset="1" style="stop-color:#B92025"/>
	</radialGradient>
	<path fill="url(#SVGID_6_)" d="M506.8,259c0-43.9-35.6-79.4-79.5-79.4c-43.9,0-79.4,35.6-79.4,79.4c0,43.9,35.6,79.4,79.4,79.4
		C471.2,338.5,506.8,302.9,506.8,259z"/>

		<radialGradient id="SVGID_7_" cx="828.8096" cy="-29.3857" r="97.8986" gradientTransform="matrix(1 0 0 1 -384.3643 325.8828)" gradientUnits="userSpaceOnUse">
		<stop  offset="0" style="stop-color:#FFFFFF"/>
		<stop  offset="1" style="stop-color:#F6F6F6"/>
	</radialGradient>
	<path fill="url(#SVGID_7_)" d="M490.9,259c0-35.1-28.5-63.6-63.6-63.6c-35.1,0-63.6,28.5-63.6,63.6c0,35.1,28.5,63.5,63.6,63.5
		C462.4,322.6,490.9,294.1,490.9,259z"/>

		<radialGradient id="SVGID_8_" cx="795.0889" cy="-54.5957" r="46.8881" gradientTransform="matrix(1 0 0 1 -384.3643 325.8828)" gradientUnits="userSpaceOnUse">
		<stop  offset="0" style="stop-color:#585857"/>
		<stop  offset="1" style="stop-color:#3D3D3C"/>
	</radialGradient>
	<circle fill="url(#SVGID_8_)" cx="402.5" cy="253.3" r="30.4"/>

		<radialGradient id="SVGID_9_" cx="3243.929" cy="1521.3423" r="40.1188" gradientTransform="matrix(0.2011 -0.1966 0.3189 0.37 -722.1261 325.2693)" gradientUnits="userSpaceOnUse">
		<stop  offset="0" style="stop-color:#FFFFFF"/>
		<stop  offset="1" style="stop-color:#F6F6F6"/>
	</radialGradient>
	<path fill="url(#SVGID_9_)" d="M414.3,241c-4.6-5.3-10.6-7.4-13.5-4.5c-2.9,2.9-1.5,9.4,3.1,14.8c4.6,5.3,10.7,7.3,13.5,4.5
		C420.3,252.9,418.9,246.3,414.3,241z"/>
</g>
<g>
	<path fill="#5E1C10" d="M348.6,445.1c17.7-1.3,85.5-9.6,71.7-36.2c-10.8-22.7-56.1-2.6-73.7-2.9c-15.1-0.2-34.2-9.1-49.2-10.5
		c-17-1.5-31.8,8.9-16.4,23.8C304.2,441.7,341.6,445.2,348.6,445.1"/>
	<g>
		<defs>
			<path id="SVGID_10_" d="M348.6,445.1c17.7-1.3,85.5-9.6,71.7-36.2c-10.8-22.7-56.1-2.6-73.7-2.9c-15.1-0.2-34.2-9.1-49.2-10.5
				c-17-1.5-31.8,8.9-16.4,23.8C304.2,441.7,341.6,445.2,348.6,445.1"/>
		</defs>
		<clipPath id="SVGID_11_">
			<use xlink:href="#SVGID_10_"  overflow="visible"/>
		</clipPath>

			<linearGradient id="SVGID_12_" gradientUnits="userSpaceOnUse" x1="343.6895" y1="73.1406" x2="343.6895" y2="89.9167" gradientTransform="matrix(-1 0 0 -1 695.7776 524)">
			<stop  offset="0" style="stop-color:#C4566D"/>
			<stop  offset="1" style="stop-color:#C76B8C"/>
		</linearGradient>
		<path clip-path="url(#SVGID_11_)" fill="url(#SVGID_12_)" d="M352.1,464.6c21.7,0,39.3-6.9,39.3-15.4c0-8.5-17.6-15.4-39.3-15.4
			c-21.7,0-39.3,6.9-39.3,15.4C312.8,457.7,330.4,464.6,352.1,464.6z"/>
		<g clip-path="url(#SVGID_11_)">

				<radialGradient id="SVGID_13_" cx="341.1685" cy="116.276" r="7.0122" gradientTransform="matrix(-1 0 0 -1 695.7776 524)" gradientUnits="userSpaceOnUse">
				<stop  offset="0" style="stop-color:#FFFFFF"/>
				<stop  offset="1" style="stop-color:#F6F6F6"/>
			</radialGradient>
			<rect x="347.8" y="400.5" fill="url(#SVGID_13_)" width="13.5" height="14.5"/>

				<radialGradient id="SVGID_14_" cx="358.6085" cy="116.276" r="7.0108" gradientTransform="matrix(-1 0 0 -1 695.7776 524)" gradientUnits="userSpaceOnUse">
				<stop  offset="0" style="stop-color:#FFFFFF"/>
				<stop  offset="1" style="stop-color:#F6F6F6"/>
			</radialGradient>
			<rect x="330.4" y="400.5" fill="url(#SVGID_14_)" width="13.5" height="14.5"/>
		</g>
	</g>
</g>
</svg>
