<?xml version="1.0" encoding="utf-8"?>
<!-- Generator: Adobe Illustrator 17.1.0, SVG Export Plug-In . SVG Version: 6.00 Build 0)  -->
<!DOCTYPE svg PUBLIC "-//W3C//DTD SVG 1.1//EN" "http://www.w3.org/Graphics/SVG/1.1/DTD/svg11.dtd">
<svg version="1.1" id="Layer_1" xmlns="http://www.w3.org/2000/svg" xmlns:xlink="http://www.w3.org/1999/xlink" x="0px" y="0px"
	 viewBox="0 0 612 612" enable-background="new 0 0 612 612" xml:space="preserve">
<radialGradient id="SVGID_1_" cx="336.709" cy="379.4941" r="253.6925" gradientTransform="matrix(1 0 0 1 0 -177)" gradientUnits="userSpaceOnUse">
	<stop  offset="0" style="stop-color:#00B9D2"/>
	<stop  offset="0.2003" style="stop-color:#00AFCE"/>
	<stop  offset="0.5191" style="stop-color:#0099C5"/>
	<stop  offset="0.9144" style="stop-color:#0076C2"/>
	<stop  offset="1" style="stop-color:#006FC1"/>
</radialGradient>
<path fill="url(#SVGID_1_)" d="M560.5,255.3c-3.1,0.2-6.7,0.5-10.5,1.2c3.3-3.2,7-6.6,10.8-9.9c12-10.3,24.4-19.6,24.3-19.6
	c0,0.1-13.8,6.9-27.6,15.1c-3.6,2.2-7.2,4.5-10.6,6.7c-2.4,0.7-6.7,2.2-10.9,4.3c-0.7,0.3-1.3,0.7-2,1c0.7-1,1.5-2.1,2.4-3.2
	c2.7-3.2,6.1-5.8,6.1-5.8c0,0-4.3,0-8.8,1.1c-0.4,0.1-0.7,0.2-1.1,0.3c2.6-3.2,6.2-7.1,10-10.8c4.3-4.1,8.7-8,11.8-10.9
	c9.2-3.8,17.2-6.5,17.2-6.5c0,0-12.3,1.2-24.9,3.8c-10.1,2.1-20.3,4.3-24.7,5.3c2-1.8,4.1-3.6,6.4-5.4c3.7-1.7,7-2.9,7-3
	c0,0-1.1-0.2-2.7-0.4c1.1-0.8,2.1-1.6,3.1-2.4c0.8-0.2,1.2-0.3,1.2-0.3s-0.3,0-0.8,0c5.3-4.1,9.5-7.1,9.5-7.1c0,0-8.7,3.3-18,7.4
	c-1.2,0.1-2.4,0.1-3.8,0.2c1.3-0.6,2.6-1.2,3.8-1.8c4.3-2.3,8.3-4.6,10.8-6c0.8-0.3,1.7-0.6,2.4-0.8c5.1-1.6,8.7-2.1,8.7-2.1
	c0,0-2.2-0.1-5.8,0.1c6.7-2.3,11.3-4.1,11.3-4.1c0,0-13.9,2.4-28.2,3.6c-1.2,0.1-2.5,0.2-3.7,0.3c0.2-0.2,0.5-0.3,0.7-0.5
	c5.8-3.9,11.4-7.4,11.4-7.4c0-0.1-6.7,0.9-13.4,2.2c-2,0.3-3.9,0.6-5.7,0.9c0.4-0.4,0.7-0.9,1.1-1.3c2.3-0.7,4.6-1.4,7-2
	c8.9-2.4,18-3.8,24.8-4.3c6.8-0.5,11.4-0.1,11.4-0.2c0,0-4.5-1-11.4-1.5c-2.6-0.2-5.5-0.4-8.7-0.4c10.3-2.4,17.8-3.6,17.7-3.6
	c0,0.1-14,0.3-30.6,2.6c0.8-0.6,1.4-1,1.4-1c0,0-4.7,0.6-10,2.2c0.3-0.3,0.7-0.7,1-1c5.4-5.4,12-9.3,15.9-11.3
	c7-2.7,12-4.7,11.9-4.8c0,0.1-10.2,2-22.3,4.2c0.7-0.5,1.5-0.9,2.2-1.4c0.8-0.5,1.6-0.9,2.4-1.3c1.7,0.1,2.7,0.1,2.7,0.1
	s-0.7-0.2-1.9-0.5c9.3-5,18.5-8.1,18.4-8.1c0,0.1-8.5,0.9-18.5,3.4c0.6-0.2,1.2-0.4,1.8-0.6c9.6-3.1,19.1-5.9,19.1-5.9
	c0,0-7.3,0.1-15.8,0.4c1.5-1.2,2.5-1.9,2.4-1.9c0,0-1.8,0.7-4.6,2c-0.7,0-1.4,0-2,0.1c-10.2,0.4-20.8,1.4-22,1.7
	c-0.3,0.1-0.6,0.2-0.9,0.3c-1.6,0-3.3,0-5,0.1l14-5.8l-17.3,1.3c0,0,0,0,0,0c3.1-1.1,6.5-2.2,9.8-3.2c7.2-2.2,14.5-4.2,19.9-5.7
	c5.4-1.5,8.9-2.6,8.9-2.6c0,0-3.7,0.5-9.2,0.9c-5.6,0.5-13.1,1.1-20.7,2c-2.8,0.3-5.6,0.7-8.3,1.1c3.5-1.6,5.9-2.5,5.9-2.5
	c0,0-2.9,0.3-7.3,1.2c-0.6,0.1-1.3,0.3-2,0.5c2.2-1.5,3.8-2.5,3.8-2.5c0,0.1-5.9,0.3-12.2,2.3c-2,0.6-4.1,1.5-5.9,2.5
	c2.8-3,6.5-6.4,10.5-9.4c2.5-1.9,5.1-3.6,7.6-5.1c1.9-0.8,3.7-1.5,5.4-2.1c5.6-2,9.5-3.1,9.4-3.1c0,0-2.9,0.3-7.6,1
	c3.1-1.6,5.2-2.6,5.2-2.6c0,0-8.6,1.6-18.3,5.2c-1.3,0.3-2.6,0.6-3.9,1c1-1.4,1.6-2.2,1.6-2.2c0-0.1-2.3,1.4-5.4,3.2
	c-1.1,0.3-2.3,0.6-3.4,0.9l-10.1,2.9c0.3-0.7,0.7-1.4,1.1-2c1.7-1.8,3.6-3.8,5.7-5.9c6-2.9,11.5-6.1,15.6-9c5.8-4.1,9.1-7.6,9.1-7.5
	c0,0-3.7,2.9-10,6c-2,1-4.3,2.1-6.8,3.1c7.9-6.9,16-12.3,16-12.3c0,0-10.7,3.7-21.1,9.5c-5.4,2.9-10.7,6.2-14.7,8.9
	c-0.8,0.2-1.6,0.4-2.5,0.5c0-0.1-0.1-0.1-0.1-0.2c0.3-0.5,0.6-1,0.8-1.4c7.4-3.6,13.1-6.3,13.1-6.3c0,0-4.4,1-10.6,2.4
	c0.3-0.5,0.7-1,1-1.4c2.1-2.8,4.7-5.1,7-6.4c2.3-1.3,4.1-1.7,4.1-1.7c0,0-1.8-0.3-4.7,0.1c-1.1,0.1-2.3,0.4-3.6,0.9
	c6.6-5.4,12.2-8.8,12.2-8.8c0.1,0-9.1,3.2-19.1,9.4c0.3-0.5,0.7-0.9,1-1.4c0.8-1,1.7-2,2.6-2.9c7.5-4.6,12.6-8.6,13.1-9
	c1.5-0.5,2.4-0.9,2.4-0.8c0,0-4.6,0.9-11.7,2.1c-1.6,0.3-3.3,0.5-5.1,0.8l4.1-6l-10.9,7.1c-0.9,0.2-1.8,0.3-2.8,0.4
	c0.7-0.6,1.4-1.2,2-1.8c5.6-5.5,9.7-12.1,11.6-17.3c2-5.2,2.4-8.9,2.4-8.8c0,0-1.1,3.5-4,8.1c-2.8,4.6-7.7,9.9-13.6,13.9
	c-3,2.1-6.2,3.9-9.3,5.5c-0.8-0.3-1.8-0.7-3.1-0.7c-0.1,0-0.1,0-0.2,0c1.5-1.6,3.1-3.3,4.8-5c3-3,6.1-5.7,8.5-7.7
	c2.5-1.9,4.3-3,4.2-3c0,0-2,0.5-5.1,1.5c-3,1-7,2.7-10.9,4.7c-3.2,1.6-6.3,3.3-8.9,4.8c-0.2-0.2-0.4-0.3-0.6-0.5l0.3-0.1l1.3-0.7
	l5.3-2.9l11.2-6.1c7.6-4.2,14.9-8.5,20.2-12c5.3-3.5,8.6-6,8.6-6c0,0-3.7,2-9.4,4.5c-5,2.2-11.5,4.8-18.4,7.3
	c1.9-1.8,3.7-3.6,5.4-5.4c2.2-1.1,3.5-1.7,3.5-1.7c0,0-0.9,0.2-2.5,0.6c2.2-2.4,4.2-4.8,5.7-6.9c3.5-4.6,5.4-7.9,5.4-7.9
	c0,0-2.5,2.9-6.7,6.7c-3.4,3.1-7.9,6.7-12.9,10.1c-0.5,0.1-1,0.2-1.4,0.4c1.2-1.4,2.3-2.8,3.4-4c4.8-5.7,8.2-9.2,8.2-9.2
	c0,0-2.5,2-6.5,5.4c-1.3,0.7-2.9,1.7-4.9,2.7c-4.6,2.4-10.8,5.1-17.3,7.6c-4.9,1.8-10,3.5-14.5,4.9c-0.4-0.3-0.7-0.5-1.1-0.8
	c0.8-0.7,1.7-1.5,2.7-2.3c0.1-0.1,0.3-0.2,0.4-0.3c11.6-5.5,22.2-10.1,22.2-10.1c0,0-3.2,0.6-8,1.7c0.3-0.1,0.6-0.3,0.9-0.4
	c6-2.8,12.2-5.2,16.8-7c4.6-1.8,7.6-3,7.6-3l-8.1,1.4c-4.5,0.7-10.4,1.7-16.4,3c4.9-3.1,8-5.2,8-5.2c0,0-3.8,1.7-9.7,4.3
	c0.1-0.2,0.2-0.4,0.2-0.4c0,0-0.1,0.2-0.4,0.4c-1.9,0.8-4.1,1.8-6.4,2.7c0.7-1,1.4-2,2-3c2.4-1.2,4-1.7,4-1.7c0,0-1.3,0.1-3.4,0.6
	c0.2-0.3,0.4-0.6,0.5-1c0.4-0.7,0.7-1.4,1-2.1c0.6-0.6,1.2-1.2,1.8-1.8c3.2-3.4,4.9-6,4.9-6c0,0-2,1.9-5.4,4.3
	c0.5-1.7,0.6-2.7,0.7-2.7c0,0-0.5,1.3-1.7,3.3c-3.8,2.5-8.9,5.3-14.4,7.8c-1.2,0.5-2.4,1-3.5,1.5c8-6.6,14.1-11.9,14.1-11.9
	c0-0.1-12.3,7.1-25.2,13.8c-0.7,0.4-1.5,0.7-2.2,1.1c1.5-1.7,3.1-3.4,4.9-4.9c4.1-3.6,9.3-6,13.3-7.3c4-1.4,6.9-1.9,6.8-1.9
	c0,0-2.8-0.1-7.2,0.2c-2.9,0.2-6.6,0.9-10.4,2.1c0.8-0.6,1.7-1.3,2.5-1.9c12.3-9.1,24.6-17.7,24.6-17.8c0,0.1-13.6,6.2-27.5,13.1
	c-5.3,2.6-10.6,5.5-15.1,8.3c1.2-1.7,2.6-3.5,4-5.3c3-3.7,6.3-7,9.2-9.1c2.8-2.1,5.1-3,5-3.1c0,0-2.4,0.2-5.9,1.6
	c-3,1.1-6.7,3.1-10.4,5.5c0.4-0.6,0.8-1.2,1.2-1.8c2.1-3.5,3.2-6.4,3.7-8c0.1-0.1,0.3-0.2,0.4-0.4c3.4-2.8,5.4-4.8,5.5-4.8
	c0,0-2.5,1.4-6.4,3.3c-0.3,0.2-0.8,0.4-1.2,0.6c2.3-3.4,3.9-6.7,5-9.7c2.2-5.9,2.5-10,2.6-9.9c-0.1,0-1.1,4-4.1,9.2
	c-3,5.2-8.3,11.4-15.1,15.5c-0.7,0.4-1.4,0.8-2.1,1.2c-3,1.3-5.9,2.7-8.7,4.1c-1,0.4-2,0.7-3,1c0,0,0,0,0,0c1.4-1.9,2.3-3.5,2.9-4.7
	c5.7-2.8,10.4-4.2,10.3-4.2c0,0-3.9,0.2-9.3,1.1c0,0,0,0,0,0c1.2-3.4,1.3-5.8,1.4-5.8c0,0-0.8,2.2-2.9,4.9c-0.3,0.4-0.7,0.9-1.1,1.3
	c-1.6,0.3-3.3,0.7-5,1.2c0.5-0.6,1-1.2,1.5-1.8c8.1-10.2,13-21.5,13-21.4c0-0.1-7.4,9.9-17,17.6c-2.2,1.8-4.5,3.4-6.8,4.9
	c-0.2-0.7-0.4-1.4-0.7-2c-0.3-0.7-0.5-1.3-0.8-1.8c1.9-2.3,3.9-4.7,6-7c10.2-11.2,20.8-21.7,20.8-21.8c0,0.1-8.9,6.1-19.2,13.7
	c-0.2,0.1-0.4,0.2-0.5,0.3c-1.2,0.6-2.5,1.3-3.8,2.2c0.6-1.3,1.2-2.6,1.8-3.9c2.9-6.8,5.3-13.7,7-18.8l2.9-8.4l-4.5,7.7
	c-2.7,4.6-6.3,10.9-10.3,16.8c-2,3-4.2,6-6.4,8.6c-0.9,0.2-2.5,0.6-4.6,1.4c-3.1,1.2-7.1,3.1-11,5.5c0,0,0,0,0,0
	c0.2-2.8,0.2-5.6-0.1-8.4c-0.6-7.5-2.8-14.5-5.1-19.4c-2.3-4.9-4.6-7.6-4.5-7.6c0,0,1.7,3.1,2.9,8.2c1.3,5,2,12,1.2,18.8
	c-0.1,1.3-0.3,2.5-0.5,3.8c-0.1-9.7-1.4-17.3-1.2-17.3c-0.1-0.1-0.9,12.6-4.4,24.5c-0.9,3.1-2,6.1-3.3,8.7c-0.1,0-0.2,0-0.2,0
	c-0.3-0.7-0.7-1.3-1-2c-0.5-0.9-1-1.8-1.5-2.7c0-0.2,0-0.3,0-0.5c2.3-2.3,4.1-4.7,5.1-6.9c1.8-3.6,2.1-6.2,2.2-6.2
	c0,0-1.1,2.4-3.6,5.2c-1.1,1.2-2.5,2.4-4.2,3.6c-0.4-2-0.9-3.9-1.7-5.8c-1.5-3.7-3.9-6.8-6.4-9.2c2-7.2,3.3-12.8,3.3-12.8
	c0,0-2.3,4.3-5.5,10.1c-1.9-2.3-3.8-4.3-5.8-6c1.1-3.2,2.4-6.1,3.8-8.4c2.6-4.3,5.2-6.6,5.2-6.7c0,0-3,1.7-6.6,5.6
	c-1.8,1.9-3.6,4.4-5.3,7.2c-1-0.7-2-1.4-3-2c-4.7-2.8-8.1-3.7-8-3.8c0,0,3.1,1.7,7,5.1c0.9,0.8,1.8,1.7,2.8,2.8
	c-0.2,0.5-0.5,0.9-0.7,1.4c-1.2-0.4-2-0.6-2-0.6c0,0,0.7,0.3,1.8,1c-0.9,1.8-1.8,3.7-2.6,5.7c-1.7,4.2-3.3,8.3-4.8,12
	c-1.1,1.7-2.3,3.5-3.5,5.4c-0.6,1-1.3,2-1.8,3.1c0.2-2.2,0.3-4.5,0.3-6.8c-0.1-7.9-1.8-15.6-4.4-20.6c-0.2-0.4-0.4-0.8-0.6-1.2
	c1.8-4,3.2-6.4,3.1-6.4c0,0-1.5,1.9-3.7,5.3c-0.4-0.7-0.8-1.3-1.2-1.8c1.7-7.6,3.4-13,3.4-13c0,0-2.3,4.3-5.1,10.7
	c-0.7-0.8-1.2-1.3-1.2-1.3c0,0,0.4,0.6,1,1.7c-2,4.7-4.3,10.6-6.1,16.8c-0.4,1.4-0.8,2.9-1.1,4.3c-1.6,2.7-3.2,5.6-4.9,8.3
	c-0.4,0.7-0.9,1.4-1.4,2.1c0,0,0,0,0,0c0-0.4-0.1-0.8-0.1-1.2c-0.1-5.5,0.5-11,1.3-15c0.8-4.1,1.7-6.7,1.7-6.7c0,0-1.5,2.3-3.3,6.1
	c-1.4,3-2.9,6.9-4.2,11.2c-1.4-2.2-2.5-4.4-3.1-6.8c-0.6-2.8-0.4-5.6,0.2-7.9c1.3-4.7,3.4-7.4,3.3-7.4c0.1,0.1-2.5,2.2-4.9,6.8
	c-1.2,2.3-2.1,5.4-2,8.9c0,3.5,1.1,7.1,2.6,10.4c0.6,1.4,1.4,2.7,2.1,3.9c-0.4,2.5-0.6,5-0.7,7.5c-0.7,0.9-1.5,1.8-2.2,2.7
	c-0.3,0.1-0.7,0.2-1,0.3c0,0,0-0.1-0.1-0.1c-0.4-0.6-0.8-1.3-1.2-2c0.8-2.1,1.2-4.2,1.2-6c0.1-4-0.9-6.4-0.8-6.4
	c-0.1,0,0.1,2.6-0.9,6.1c-0.3,1-0.8,2-1.3,3.1c-0.9-3-1.9-5.8-2.8-8.4c0.1-1.7,0.3-3.3,0.7-4.7c0.8-3.9,2.1-6.3,2-6.3
	c0,0-1.8,2-3.7,5.7c-0.2,0.4-0.4,0.8-0.6,1.2c-0.2-0.4-0.3-0.9-0.5-1.3l-3.2-8l1.5,8.5c0.2,1.3,0.5,2.8,0.7,4.4
	c-0.1,0.3-0.2,0.7-0.3,1c-0.4-0.5-0.8-1-1.2-1.4c-4.8-5.7-10-10.7-13.4-13.8c0.5-2.6,0.9-4.2,0.9-4.2c0,0-0.7,1.3-1.6,3.5
	c-1.9-1.7-3.1-2.7-3.1-2.7c0,0,1.1,1.4,2.7,3.8c-0.3,0.9-0.7,1.9-1.1,3c-0.2,0.7-0.4,1.3-0.6,2.1c-0.6-3.5-1.1-6.9-1.3-9.7
	c-0.5-5.6-0.4-9.4-0.4-9.4c0,0-0.8,3.7-1.3,9.4c-0.6,5.7-0.6,13.4-0.1,21.2c0,0.6,0.1,1.1,0.1,1.7c-2.2-0.8-4.3-1.5-6.3-2.1
	c-0.4-0.1-0.7-0.2-1.1-0.3c-0.3-2.6-0.5-5.4-0.5-8.2c-0.4-10.5,1.3-20.9,1.3-20.9c0,0-4.3,9.5-6.8,20.3c-0.6,2.3-1,4.6-1.4,6.9
	c-1.3-0.3-2.1-0.4-2.1-0.4c0,0,0.8,0.3,2,0.7c-0.1,0.8-0.3,1.7-0.4,2.5c-0.9-0.5-1.7-1-2.6-1.4c-1.1-1.7-2.2-3.4-3.4-5
	c-1.8-2.6-3.7-5.1-5.6-7.5c0.4-1.5,0.9-3,1.4-4.2c1.5-3.9,3.1-6.4,3-6.4c0,0-2,2-4.6,5.6c-0.6,0.8-1.2,1.7-1.8,2.7
	c-1.9-2.2-3.7-4.3-5.3-5.9c-3.8-4-6.6-6.2-6.5-6.3c0,0,2.3,2.8,5.2,7.3c1.5,2.3,3.2,5.2,4.9,8.3c-0.3,0.6-0.6,1.3-0.8,1.9l-2.1-2.6
	l1.8,3.4c-0.2,0.5-0.4,1-0.5,1.5c-0.3-0.1-0.5-0.2-0.5-0.2c0,0,0.1,0.1,0.4,0.3c-0.5,1.5-0.8,3.1-1.1,4.8c-0.2,1.3-0.3,2.6-0.3,3.9
	c-1.1-1.5-2.3-3.1-3.5-4.5c-6-7.4-12.9-13.2-12.9-13.2c0,0,3.2,5.2,6.3,11.7c0,1.3-0.1,4.7,0.2,8.7c-1.6-0.9-2.5-1.4-2.5-1.4
	c0,0,0.6,0.5,1.5,1.3c-1-0.3-1.5-0.5-1.5-0.5s0.9,0.5,2.5,1.3c0,0,0.1,0.1,0.1,0.1c0.1,1,0.2,2,0.3,3.1c0.2,1.8,0.3,3.6,0.5,5.3
	c-3.4-4.2-7-7.8-10-10.4c-4.2-3.5-7.5-5-7.5-4.9c0,0,3,2,6.3,6.2c2.4,3,5.1,7,7.5,11.4c-1-0.6-2-1.1-2.9-1.6
	c-0.3-0.1-0.5-0.3-0.8-0.4c-1.6-1.5-3.1-2.8-4.5-3.9c-4.1-3.1-7.1-4.6-7.1-4.6c0,0,2.7,2.1,6,5.9c3.3,3.8,6.9,9.4,9.6,15.5
	c0.9,2.1,1.8,4.2,2.6,6.3c-0.2,0.3-0.4,0.6-0.5,0.8c-1.9-1.8-3.9-3.5-5.9-5.2c-13.8-11.7-28.4-20.9-28.3-21
	c-0.1,0,13,11.6,24.5,24.9c1.5,1.7,2.9,3.5,4.3,5.2c-0.2-0.1-0.4-0.1-0.4-0.1c0,0,0.2,0.1,0.6,0.4c0.6,0.7,1.1,1.4,1.7,2.1
	c-0.7,1.3-1.3,2.6-1.9,3.9c-0.4-0.3-0.8-0.6-1.2-0.8c-0.4-1.1-0.9-2.2-1.5-3.2c-2.2-4.3-5.8-7.6-8.6-9.3c-2.8-1.8-4.8-2.4-4.8-2.5
	c0,0,1.7,1.3,3.7,3.8c1.1,1.3,2.1,3,3,4.8c-5.3-5-10.6-9.7-14.8-13c-4.5-3.6-7.6-5.8-7.6-5.8c0,0,2.7,2.7,6.4,7
	c1.6,1.8,3.4,4,5.2,6.3c-2.8-1.5-4.6-2.3-4.5-2.3c0,0,2.8,2,6.9,5.3c1.8,2.3,3.7,4.8,5.6,7.3c0.6,0.8,1.2,1.7,1.8,2.5
	c-5-3.7-10.7-7.4-16.7-10.6c-17.6-9.5-36.3-13.1-36.2-13.2c-0.1,0,18,6.5,33.3,17.9c7.5,5.3,14.1,11.7,19.1,17.1c-5-2.6-9-4.1-9-4.2
	c-0.1,0,5.4,5.1,9.7,10.8c0.2,0.3,0.4,0.6,0.6,0.9c-0.1,0.4-0.2,0.8-0.2,1.2c-0.2,0.2-0.4,0.4-0.6,0.6c-0.7-0.5-1.4-0.9-2.1-1.2
	c-3-1.5-5-1.9-5-1.9c0,0,0.9,0.6,2.1,1.6c-1.5-0.4-3.1-0.7-4.6-0.9c-2.2-1.1-4.2-2.1-6.1-3c-6.6-4.7-13.5-6.4-13.5-6.4
	c0-0.1,5.1,3.5,9.1,8.8c-10.1,0.2-17.8,2.4-17.8,2.3c-0.1,0,9.9-0.5,20.6,2c1.3,2.3,2.2,4.5,2.7,6.4c0,0.6,0.1,1.2,0.3,1.8
	c0.1,0.2,0.2,0.3,0.2,0.5c0.2,1.3,0.3,2.2,0.3,2.8c-0.6-0.2-1.1-0.4-1.7-0.6c-3.1-1-6.6-1.7-10.2-2.1c-0.2-0.1-0.4-0.1-0.7-0.2
	c-6.3-1.7-12.7-2.2-17.4-1.8c-4.7,0.4-7.6,1.5-7.6,1.4c0,0,3.1-0.3,7.5,0.3c0.1,0,0.2,0.1,0.3,0.1c-1.8,0.2-3.5,0.4-5,0.6
	c-4.3,0.7-6.8,2.1-6.8,2.1c0-0.1,2.7-0.8,6.9-0.4c4.2,0.3,9.7,1.2,15.1,2.7c0.1,0,0.2,0.1,0.3,0.1c-1.3-0.1-2.6-0.2-3.9-0.2
	c-0.9,0-1.7,0-2.5,0.1c-0.5-0.1-1-0.2-1.6-0.3c-14.1-2.5-27.7-1.9-27.6-2c0,0,7.8,1.4,17.1,4.2c-0.2,0.1-0.4,0.1-0.6,0.2
	c-4,1.2-6.2,2.8-6.2,2.7c0,0,2.6-0.8,6.5-1c1.9-0.1,4.2-0.1,6.7,0.2c0.9,0.3,1.8,0.7,2.7,1c5.9,2.3,11.5,5.3,15.3,8.2
	c-0.8-0.3-2.9-0.9-6-1.6c-0.9-0.4-1.9-0.8-2.9-1.2c0.3-1,0.5-1.6,0.5-1.6c0,0-0.5,0.5-1.1,1.4c-1.9-0.8-3.9-1.5-5.9-2
	c-1.1-0.3-2.2-0.6-3.3-0.9c0.5-1.5,0.8-2.4,0.9-2.4c0,0-0.8,0.8-2,2.1c-4.4-1-8.6-1.6-11.9-1.9c-4.5-0.4-7.4-0.2-7.4-0.2
	c0,0,2.9,0.5,7,1.9c1.8,0.6,3.9,1.4,6.1,2.3c-0.9,0-1.7,0-2.6,0c-6.8,0.2-13.5,1.9-17.9,4.1c-4.4,2.1-6.8,4.3-6.8,4.3
	c0,0.1,2.8-1.6,7.4-2.6c4.6-1.1,10.8-1.3,17-0.2c1,0.2,1.9,0.4,2.9,0.6c-0.1,0.1-0.1,0.2-0.2,0.3c-1.1,1.8-2.2,3.7-3,5.5
	c-5.7,0.7-10.9,1.8-14.9,3.3c-5.8,2-9.1,4.3-9.1,4.2c0,0,3.6-1.7,9.5-2.6c2.2-0.4,4.7-0.6,7.4-0.7c-1.7,0.9-3.3,1.9-4.9,2.9
	c-10.6,0.1-18.4,1.1-18.3,1.1c0-0.1,5.8,0.2,14,1.3c-0.2,0.1-0.5,0.1-0.8,0.1c-7.7,1.4-15,3.1-20.6,4.2c-5.5,1.2-9.2,1.5-9.2,1.5
	c0,0,3.7,0.3,9.4,0.2c4.6-0.1,10.5-0.3,16.6-0.4c-0.6,0.7-1.1,1.4-1.5,2.1c-1.7,2.8-2.5,5.3-2.9,6.9c-0.9,0.2-1.9,0.5-2.7,0.8
	c-3.9,1.2-6.3,2.2-6.4,2.2c0,0,2.6-0.3,6.6-0.5c3.5-0.1,8.1,0,12.8,0.5c-3.9,1.8-7.6,3.6-10.7,5.3c-1,0.1-2.1,0.2-3,0.3
	c-0.8,0.1-1.6,0.2-2.3,0.4c-1.9-0.8-3.7-1.5-5.4-2.1c-5.9-2.3-10-3.2-10-3.2c0,0,3.8,1.6,9.2,4.8c0.7,0.4,1.5,0.9,2.2,1.3
	c-0.7,0.2-1.2,0.3-1.2,0.3c0,0,0.6,0,1.6,0c0.4,0.2,0.8,0.5,1.3,0.7c-12.2,2.5-23.6,6.2-32,10.2c-10.2,4.8-15.8,9.7-15.8,9.6
	c0,0.1,6.1-4.2,16.5-8c10-3.7,23.9-6.5,38.2-7.6c2.2,1.3,4.4,2.7,6.7,4.1c-1.6,0.9-3.3,1.9-4.9,2.8c-5.2,3.2-10.1,6.5-13.7,9.1
	c-7.9,2.1-15.2,4.4-21,6.9c-4.7,2-8.4,4.1-10.7,5.9c-2.3,1.8-3.2,3.3-3.2,3.3c0,0,1-1.4,3.5-2.9c2.4-1.5,6.3-3.2,11-4.7
	c1.7-0.5,3.5-1,5.4-1.5c-0.7,0.7-1,1.2-1,1.2c0,0,0.8-0.7,2.2-1.5c2.9-0.7,5.9-1.3,9.1-1.9c-1.2,0.6-1.9,1-1.9,1
	c0,0,1.7-0.5,4.4-1.3c2.4,0.2,4.9,0.6,7.4,1.3c4.1,1.1,8.2,2.7,11.8,4.1c-0.1,0.1-0.2,0.2-0.3,0.2c0,0,0,0,0,0
	c-15.5,0.8-30.4,3.6-41.4,5.9l-18.2,3.9l18.5-2.2c4.6-0.5,9.9-1,15.6-1.5c-1.5,0.8-2.9,1.7-4,2.6c-4.1,3.4-5.6,6.6-5.6,6.6
	c0,0.1,2.2-2.8,6.6-5.1c2.2-1.2,4.9-2.1,7.9-2.4c3-0.3,6.3-0.1,9.6,0.5c0.5,0.1,1,0.2,1.4,0.3c-1.7,1.7-2.7,2.8-2.7,2.8
	c0,0,1.6-1,4.2-2.5c1.7,0.3,3.4,0.7,5,1.1c-4.2,1.6-9.1,3.8-13.8,6.3c-10.1,5.4-19.1,11.6-19.1,11.6c0,0,0.6-0.2,1.6-0.6
	c-3.1,2.2-4.8,3.7-4.8,3.7c0,0,3.7-2.5,9.9-5.4c2.5-0.8,5.5-1.8,8.8-2.7c-7.4,5.1-14.2,10.1-16.7,12c-6.6,3.3-11.3,5.6-11.4,5.5
	c0,0.1,14.2-3.5,27.9-7c-7.8,4.5-16.1,7.8-16.1,7.8c0,0,0.5,0,1.5-0.1c-2,0.8-3.9,1.7-5.6,2.6c-5.4,2.9-8.5,5.4-8.5,5.4
	c0,0,3.5-1.9,9.2-3.8c3-1,6.5-1.9,10.4-2.5c-0.2,0.2-0.4,0.3-0.7,0.5c-8.3,5.8-15.7,12.1-15.7,12.1c0,0,7.4-3.3,15.8-6.3
	c-1,1.4-1.6,2.4-1.6,2.4c0,0,1.6-1.4,4.2-3.1c0.4-0.2,0.8-0.5,1.2-0.7c3.1-1.1,6.2-2,8.9-2.7c-1.4,1.1-2.9,2.3-4.3,3.5
	c-0.3,0.2-0.6,0.4-1,0.6l-11.2,6.4c-1.7,1-3.3,1.9-4.8,2.9c-0.4,0.3-0.9,0.5-1.3,0.8c-4.8,3-10.7,7-16.3,11.2
	c-11.2,8.3-21.1,17.4-21.1,17.4c0,0,11.6-6.9,24-12.7c6.2-2.9,12.6-5.7,17.6-7.6c5-1.9,8.6-3,9.3-3.3c1.1-0.4,2-1.2,2.6-2
	c0.5-0.1,1-0.2,1.4-0.3c-0.5,0.5-1,1-1.6,1.5c-0.2,0.2-0.4,0.3-0.6,0.5c-18.4,9.1-33.1,21.6-33.1,21.6c0,0,7.8-4.9,18.9-10.1
	c-2.2,1.2-4.3,2.4-6.1,3.6c-8,4.9-12.7,8.9-12.7,8.9c0,0,5.1-3.5,13.5-7.4c0.1,0,0.2-0.1,0.3-0.1c-9.9,6.5-17.8,13-17.8,13
	c0,0,11.1-5.8,23.3-10.3c-0.3,0.6-0.4,0.9-0.4,0.9c0,0,0.4-0.4,1.1-1.1c0.2-0.1,0.3-0.1,0.5-0.2c3.1-1.1,6.2-2.2,9.1-3.1
	c-5,4.3-10.7,7.6-10.7,7.6c0,0,1.2-0.1,3-0.4c-1.7,0.9-3.3,1.9-4.9,3c-4.7,3.1-9,6.8-11.6,10c-2.7,3.1-3.8,5.6-3.8,5.6
	c0,0,1.7-2.1,4.9-4.3c1.8-1.3,4.2-2.6,6.7-3.8c-1,1.3-1.9,2.7-2.7,4c-1.6,1.1-2.6,1.7-2.6,1.7c0,0,0.7-0.1,1.8-0.4
	c-1.5,2.5-2.9,4.8-3.9,6.9c-1.5,3.1-2.4,5.3-2.6,6c-1.3,1.4-2.5,2.6-3.4,3.7c-5.1,3.9-9.7,7.8-13.1,11.4c-6.2,6.6-8.8,11.9-8.8,11.9
	c0,0.1,3.3-5,10-10.6c3.2-2.7,7.2-5.5,11.6-8.2c-0.7,0.4-1.1,0.7-1.1,0.7c0,0,2.1-0.6,5.4-1.5c-0.1,0.2-0.3,0.4-0.4,0.6
	c-2.8,4.5-4.8,9.4-5.5,13.5c-0.4,0.1-0.7,0.3-1.1,0.5c-3.6,1.4-6.2,1.9-6.2,1.9c0,0,2.6,0.2,6.6-0.3c0.1,0,0.2,0,0.4-0.1
	c-0.1,1.2-0.1,2.2,0,3.2c-1.2,1-2.3,2.1-3.4,3.1c-3.3,3.2-5.9,6-7.6,8c-1.7,2.1-2.4,3.4-2.4,3.4c0,0,0.9-1.3,2.7-3.1
	c1.9-1.9,4.7-4.3,8.3-7c0.9-0.7,1.8-1.3,2.7-2c0.2,0.7,0.4,1.1,0.4,1.1c0,0-0.1-0.5-0.1-1.3c2.1-1.5,4.3-3,6.7-4.6
	c-1.4,3.4-2.4,6.6-2.9,9.3c-0.6,3.1-0.6,5.3-0.6,5.9c-3.8,3-6.9,6.3-9,9.2c-2.5,3.5-3.6,6-3.7,6c0,0,1.8-2.2,4.9-4.8
	c2.5-2.1,6-4.3,9.8-6.1c-0.9,0.9-1.9,1.8-2.8,2.7c-5.8,5.6-11.5,11.1-16,14.9c-4.5,3.8-7.8,6-7.8,6c0,0,3.6-1.6,8.8-4.6
	c5.2-3,11.8-7.5,18.5-12c1.8-1.2,3.6-2.4,5.4-3.6c-0.5,0.5-0.9,1.1-1.4,1.6c-4.7,5.6-9.4,11-13.3,14.6c-3.9,3.6-6.9,5.5-6.9,5.6
	c0,0,3.3-1.3,8-4.2c0.9-0.5,1.8-1.2,2.7-1.8c-1.4,2.7-2,4.4-2,4.4c0,0,1.2-2.3,3.8-5.7c3.6-2.6,7.6-5.8,11.6-9
	c3.5-2.9,7.1-5.7,10.4-8c-1.2,1.3-2.2,2.2-2.2,2.2c0,0,1.3-0.1,3.3-0.3c-0.2,0.2-0.4,0.5-0.6,0.7c-2.2,2.1-4.3,4.2-6.3,6.4
	c-7.1,7.8-13,16.2-16.9,22.8c-3.9,6.6-5.5,11.4-5.5,11.4c0,0,2.3-4.5,6.9-10.4c2.3-2.9,5.1-6.1,8.2-9.4c-3.4,6.8-5.9,13.4-7.1,19.1
	c-2,9.4-0.9,15.7-1,15.6c0.1,0-0.3-6.4,2.7-15.2c1.8-5.6,5-11.8,9.1-18.1c2.3-1.8,6-4.5,9.8-7.3c1.2-0.9,2.4-1.7,3.5-2.5
	c-1.4,3.4-3,7.7-4.5,12.1l-3.2,9.5c-1.6,2.9-3,5.8-4,8.4c-3.6,8.7-4.7,14.7-4.7,14.7c0,0,1.8-5.9,6.3-14c3.2-5.8,8-12.5,13.9-18.9
	c-0.1,0.3-0.3,0.5-0.4,0.8c-0.1,0.5-0.5,3.3-2.1,7.1c-1.5,3.9-4.3,8.7-7.6,13.4c-3.3,4.6-6.9,9-9.6,12.4l-4.4,5.5l5.6-4.3
	c3.4-2.6,8-6,12.5-9.9c2.2-1.9,4.3-3.9,6.2-6c-0.5,2-1,4-1.4,6.1c-1.7,7.9-2.5,15.7-2.5,15.6c0,0,1.6-3.2,3.9-7.4
	c-0.5,1.4-0.9,2.8-1.2,3.9c-1.3,2.6-2.3,5.1-3.2,7.4c-3.2,8.8-3.4,15-3.5,14.9c0.1,0,1-6.1,5.1-14.3c2.1-4.3,5.1-9.1,8.8-13.9
	c-1.3,4.2-3,9.3-4.8,14.3c-4.1,11.3-7.6,22.5-7.6,22.5c-0.1-0.1,5.9-9.8,12.4-19.9c-3,6.5-4.5,12-4.5,12c-0.1,0,4.6-7.3,10.9-13.6
	c-0.2,1.2-0.4,2.7-0.7,4.4c-0.8,4.3-2.5,9.8-4.7,15.1c-2.2,5.3-5,10.3-7.4,13.8c-2.4,3.5-4.4,5.6-4.4,5.6c0,0,2.4-1.5,5.7-4.5
	c3.3-2.9,7.4-7.3,10.9-12.2c0.1-0.1,0.2-0.3,0.3-0.4c-0.3,1.3-0.4,2.1-0.4,2.1c0,0,1-2.4,3-5.9c0.2-0.3,0.4-0.6,0.6-1
	c0.4-0.6,0.8-1.3,1.2-1.9c0,0.5,0,0.8,0,0.8c0,0,0.1-0.5,0.4-1.5c0.1-0.1,0.1-0.2,0.2-0.4c0.5-0.7,0.9-1.5,1.4-2.2
	c0.3-0.3,0.5-0.7,0.8-1c-1.5,3.8-2.7,7.5-3.6,10.6c-0.4,1.5-0.7,2.9-1,4.1c-2,4.8-3.6,9.4-4.6,13.6c-0.5,2.2-0.9,4.2-1.2,6.1
	c-0.3,0.4-0.5,0.7-0.5,0.7c0,0,0.2-0.1,0.4-0.3c-1.4,9.9-0.3,16.2-0.4,16.1c0.1,0.1-0.6-7,2-17.4c0.2-0.2,0.5-0.4,0.8-0.7
	c-0.4,3.4-0.4,5.4-0.4,5.4c0,0,0.4-2.6,1.7-6.6c0.2-0.1,0.3-0.3,0.5-0.4c1.4-1.4,3-3.2,4.6-5.1c-0.5,2.1-0.8,4.3-1.1,6.3
	c-1,0.8-1.7,1.1-1.7,1.1c0,0,0.6-0.1,1.6-0.5c-0.7,4.7-1.1,9.1-1.2,12.7c-0.2,5.5,0.4,9.1,0.4,9.1c0,0,0.1-3.6,1.3-8.8
	c1-4.3,2.6-9.8,4.7-15.3c2.9-1.7,6.2-4.2,9.1-7.3c1.2-1.3,2.3-2.6,3.3-4c-0.7,2.5-1.6,5.2-2.6,7.9c-3,8.4-6.5,16.5-6.4,16.5
	c0,0,5.7-6.6,11.3-13.9c1.9-2.4,3.7-4.9,5.2-7.3c-0.2,1.9-0.6,4.7-1.3,7.7c-0.6,1.1-1.2,2.1-1.8,3.2L88,513.4
	c-2.9,5.1-5.1,8.4-5,8.4c0,0,2.7-2.9,6.5-7.5l6.7-8.3c-0.4,0.9-0.6,1.5-0.6,1.5c0,0,4.8-4.8,9.1-10.6c0.1-0.2,0.2-0.3,0.3-0.5
	l-3,9.5c-1.7,5.2-3.7,10.2-5.5,13.8c-1.8,3.6-3.3,5.9-3.3,5.9c0,0,2-1.8,4.7-4.9c2.7-3.1,6.1-7.6,9.1-12.4c2.2-3.4,4.2-6.8,6-9.8
	c-0.8,4.1-0.9,7.4-0.9,7.4c0,0,1.4-2.1,3.5-4.6c-0.1,0.5-0.1,1-0.2,1.4c-4.2,5.9-7.9,11.7-10.7,16.3c-0.5,0.8-0.9,1.5-1.3,2.2
	c-3.8,2.8-7.3,5.3-10.3,7.4c-5.1,3.5-8.7,5.6-8.7,5.6c0,0,3.9-1.4,9.5-4.1c1.9-0.9,4.1-1.9,6.3-3c-0.5,1-0.8,1.6-0.8,1.6
	c0,0,0.5-0.7,1.4-1.9c2.9-1.5,6.1-3,9.3-4.7c-1.1,2.6-2,4.2-2,4.2c0,0,1.6-1.5,3.8-4.1c0.5-0.5,1-1.1,1.4-1.8
	c0.1-0.1,0.3-0.1,0.4-0.2c-1.7,6.2-2.7,12.3-3,17c-0.4,5.8-0.2,9.5-0.3,9.5c0,0,0.5-3.8,2-9.3c1.1-4.1,2.8-9.1,5.1-14.1
	c0.2,6.5,0.8,11.2,0.8,11.5c-1,2.6-2,4.9-3,6.8c-1.8,3.6-3.3,5.8-3.3,5.8c0,0,1.9-1.7,4.5-4.6c-2.7,6.4-4.5,10.9-4.5,10.9
	c0.1,0.1,7.8-12.6,16.8-24.7c1-1.3,1.9-2.6,2.9-3.8c-0.2,1.1-0.5,2.2-0.7,3.3c-1.8,7.4-5.5,14.2-5.6,14.2c0,0,5.9-5,10.6-11.9
	c2.3-3.4,4.4-7.1,5.8-10.2c0.5-1,0.8-2,1.1-2.8c0.5,0.4,0.9,0.7,1.4,1.1c0,0.1-0.1,0.2-0.1,0.2c-0.5,1-2.8,6.8-6,14.4
	c-1.3,1.6-2.5,3.1-3.6,4.5c-5.4,6.9-8.3,11.8-8.3,11.8c0,0,3.5-4.5,9.5-10.6c-1.7,4-3.5,8.3-5.4,12.5c-6.6,15.1-13.6,29.6-13.6,29.6
	c0,0,9.4-13,18.5-27c4.8-7.3,9.6-14.9,13.1-20.7c-0.1,1.3-0.3,2.5-0.4,3.6c-1.5,2.7-3,5.4-4.5,8.2c-7.4,14-13.3,28-13.3,28
	c0,0,8.4-12.8,18-25c0.6-0.7,1.1-1.5,1.7-2.2c-1.9,4.2-4.1,9-6.5,13.6c-3.1,6-6.7,11.5-9.9,15.4c-3.1,3.9-5.7,6.1-5.6,6.1
	c0,0,2.9-1.6,6.9-4.9c4-3.2,8.8-8.1,13.3-13.5c5.7-7,10.9-14.5,14.1-19.3l-0.2,2.8c-0.1,2.4-0.2,4.7-0.1,6.9c-1.6,3.4-3.1,6-3.2,6
	c0,0,0.6-0.3,1.4-0.9c-3,6.4-6.1,11.9-6.2,11.9c0,0,4.1-3.4,8.7-8c0,0.1,0,0.1,0,0.1s0-0.1,0-0.2c1-1,2.1-2.1,3.1-3.2
	c0.3-0.4,0.7-0.7,1-1.1c-0.5,1.5-0.9,3.1-1.4,4.7c-1.6,6-2.5,12-3,16.7c-0.1,0.2-0.3,0.4-0.4,0.5c-2.8,3.5-5,5.5-5,5.6
	c0,0,2.1-1.2,5.2-3.5c-0.4,4.1-0.4,6.7-0.4,6.7c0,0,0.8-3.4,2.4-8.3c3.5-2.8,7.6-6.6,11.5-10.8c3.8-4.1,7.4-8.4,10.4-11.9
	c0.1,2.1,0.1,3.4,0.1,3.4c0,0,2.2-4.8,5-9.4c0.8-0.9,1.4-1.6,1.6-1.9c0,0.9,0.1,1.7,0.1,2.6c0,0.2,0,0.4,0,0.6
	c-1.8,2.2-4,4.8-6.1,7.5c-4.8,6.1-8.6,12.4-8.6,12.4c0,0,5.9-4.5,12.3-8.3c0.8-0.5,1.6-1,2.4-1.4c-0.5,2.9-0.5,5.7,0.2,8.1
	c0.4,1.5,1,2.6,1.5,3.5c-2.4,4.5-4.9,8.8-6.9,12c-2.3,3.6-4,5.8-4,5.8c0,0,2.2-1.8,5.3-4.7c1.7-1.6,3.7-3.6,5.8-5.8
	c-5,6.3-9.5,11.3-9.5,11.3c0,0,8.7-5.6,17.2-12.4c2-1.6,4-3.3,5.9-4.9l-1.5,3.2c-4.5,2.7-7.4,4.7-7.4,4.7c0,0,3.6-1.3,8.8-3.1
	c-2.9,4.5-4.9,7.8-4.9,7.8c0,0,5-4.6,11.1-9.9c2.8-0.9,5.7-1.8,8.7-2.7c0.9-0.3,1.7-0.5,2.6-0.8c-0.2,2.3-0.3,4.3-0.3,5.9
	c-2.1,1.7-4,3.3-5.5,4.7c-2.9,2.6-4.7,4.4-4.7,4.4c0,0,2.2-1.2,5.6-2.9c3.4-1.7,8.1-3.7,12.9-5.7c3.9-1.6,7.9-3.2,11.3-4.6
	c-2.7,3.5-6,7.5-9.3,11.4c-8.5,9.9-18.2,18.4-18.2,18.4c0,0,11.2-6.2,21.9-14.3c6.9-5.2,13.6-11,17.7-14.8c0.8-0.5,1.7-1.1,2.5-1.7
	c1.8-1.3,3.5-2.7,5-4c0.1,0,0.2,0,0.3,0.1c-0.1,0.5-0.2,1.1-0.3,1.7c-0.5,2.2-1.8,5.2-3.6,8c-3.5,5.7-8.2,10.9-8.1,10.9
	c0-0.1,6.1-2.8,12.1-7.1c1.4-1,2.7-2.1,4-3.3c-1.6,1.9-2.8,3.2-2.7,3.2c0-0.1,5.5-2.4,11.2-4.8c0.4-0.2,0.8-0.3,1.1-0.5
	c-0.7,1.5-1.5,3-2.3,4.6c-4.2,8.3-7.8,16.6-7.7,16.6c0,0,4.3-5.1,9.7-10.7l10.1-5c5.7,1.9,11,2.3,11,2.3c0,0-3-1.9-6.2-4.6
	c1.4-0.7,2.7-1.3,4.1-1.9c0.1,0,0.1,0.1,0.1,0.1c2.7,1.6,5.7,2.5,7.9,2.6c0.2,0,0.3,0,0.4,0c-5.7,4-10.3,6.9-10.3,7
	c0,0,9.4-2.7,18.9-6.4c1-0.4,2.1-0.8,3.1-1.3c2.2,0.9,4.7,1.9,7.4,2.7c-1.6,1.1-2.6,1.8-2.5,1.8c0,0,1.8-0.4,4.5-1.2
	c1.8,0.5,3.7,1.1,5.6,1.5c11.3,2.7,22.3,3.6,22.3,3.7c0,0-9.6-3.4-19-8.2c0.5-0.2,1.1-0.4,1.6-0.6c1.3,0.6,2.8,1.3,4.5,1.9
	c5.1,1.9,11.6,3.5,18,4.4c12.7,1.9,25,2.3,25,2.4c0.1-0.1-11.2-3.1-22.4-7.4c1.8,0.5,3.7,0.8,5.5,1c3.8,0.4,7.5,0.3,10.1,0.2
	l4.5-0.1c0.1-0.1-6.9-2.3-13.1-5.4c-0.6-0.3-1.2-0.7-1.8-1c0.2-0.1,0.3-0.3,0.5-0.4c2.1-1.8,4.2-3.8,5.7-5.7c1.4,1,3.1,1.9,4.7,2.8
	c0.8,1.1,1.6,2.3,2.4,3.4c3.6,4.9,7.8,8.8,7.8,8.7c0,0-0.4-1.2-0.9-2.9c2.1,2.2,4.3,4,6.1,5.3c2.9,2.1,5.1,3.1,5,3.1
	c0,0-1.7-1.6-3.8-4.3c-1.1-1.4-2.2-3.1-3.3-5c1.1,1,2.3,1.9,3.5,2.8c3.3,2.3,6.6,4.2,9,5.7l4,2.4l-2.9-3.7c-1.8-2.2-4.2-5.2-6.2-8.3
	c-2.1-3.1-3.7-6.3-4.4-8.7c-0.6-1.8-0.7-3.1-0.9-3.8c0.5,0.4,1,0.8,1.4,1.2c0.2,0.9,0.6,1.7,1.3,2.4c0.5,0.5,3.4,2.7,7.7,4.7
	c2.2,1,4.7,1.9,7.4,2.7c4.8,2.2,8.3,3.3,8.3,3.3c0,0-1.1-0.8-2.9-2.1c0.9,0.2,1.8,0.3,2.7,0.5c11.1,1.6,21.5,0.8,21.5,0.8
	c0.1-0.1-10.4-2.1-20-6.2c-4.8-2-9.2-4.6-12.2-7c-0.1-0.1-0.2-0.2-0.3-0.3c0.9,0,1.8,0,2.6-0.1c2.3-0.2,4.5-0.6,6.5-1
	c3,1.8,5.3,2.7,5.3,2.7c0,0-1-1.3-2.3-3.3c0.5,0.2,1,0.4,1.5,0.6c2.8,2.6,6.1,5.1,9.4,7.2c4.9,3.2,9.9,5.9,13.6,7.9l6.1,3.3
	l-5.1-4.7c-2.9-2.7-6.7-6.2-10.3-9.9c4.6,0.9,7.6,1.2,7.5,1.3c0.1,0-4-1.2-9.6-3.6c-2.4-2.7-4.5-5.4-6.1-7.9
	c0.9-0.2,1.5-0.3,1.5-0.3c0,0-0.7-0.2-1.9-0.4c-0.2-0.4-0.5-0.8-0.7-1.1c1.4,0.2,2.6,0.1,3.6,0c3.3,2.7,7.7,5.2,12.2,7
	c1.1,0.7,2.2,1.3,3.2,1.9c7.3,4.1,14.8,7.2,20.2,9.7c5.5,2.4,9.1,4.2,9.1,4.2s-3.2-2.3-8.2-5.7c-2-1.4-4.4-2.9-6.8-4.6
	c2,0.5,3.2,0.7,3.2,0.8c0.1-0.1-6.1-3.2-12.7-7.7c-0.5-0.4-1.1-0.8-1.6-1.3c-2.5-2-4.9-4.2-7-6.4c6.5,2.2,12.7,3.4,17.7,4
	c1.8,0.2,3.3,0.4,4.7,0.6c3.2,3.2,5.2,5.3,5.3,5.2c0,0-1.3-2-3.4-5.1c2.6,0.2,4.2,0.3,4.2,0.3c0,0-1.8-0.4-4.8-1.1
	c-2.4-3.5-5.6-8.2-9.2-13.1c0.9,0.6,1.8,1.3,2.8,1.9c4.6,3,9.6,5,13.4,5.9c3.8,0.9,6.4,0.9,6.4,1c0,0-2.4-0.8-5.7-2.6
	c-3-1.7-6.6-4.4-9.7-7.7c6.5,3.8,13.2,6.5,18.4,8.1c5.3,1.7,8.9,2.1,8.9,2.1c0,0-3.5-1.1-8.2-3.7c-0.4-0.2-0.8-0.4-1.1-0.7
	c0.1-1.2,0.2-3,0.4-5c0.3-3.2,1-7.1,1.9-11.3c7.3,2.6,12.6,4,12.6,4.1c0.1-0.1-5.2-2.7-12-6.8c0.1-0.5,0.2-0.9,0.3-1.3
	c0.5-2.1,1.1-4.3,1.6-6.4c9.9,5.9,19.6,8.8,19.6,9c0.1,0-4.3-2.7-9.5-6.8c4.2,0.9,8.2,1.4,11.7,1.9l2.6,3.4l-1.4-3.2
	c2.3,0.2,4.2,0.4,5.8,0.5c2.2,0.8,3.5,1.1,3.5,1.1c0,0-0.7-0.4-1.9-1c1.7,0.1,2.7,0.2,2.7,0.2c0,0-2-0.6-5.1-1.6
	c-1.1-0.7-2.3-1.4-3.7-2.3c-1.2-0.8-2.4-1.7-3.7-2.7c-1.5-3.7-3.3-8.1-4.5-12.6c-1.6-5.5-2.2-11.1-2.1-15.4c0-0.8,0-1.5,0.1-2.2
	c0.5,1.9,1.1,3.9,1.9,5.9c0.3,0.7,0.6,1.3,0.9,1.9c-0.2,3.3-0.2,5.4-0.2,5.4c0,0,0.4-1.3,1.2-3.4c1.4,2.5,3,4.7,4.4,6.3
	c2.2,2.3,3.8,3.5,3.8,3.5c0,0-1.2-1.7-2.4-4.4c-1.2-2.7-2.2-6.5-2.3-10.4c-0.1-1.5,0-2.9,0.1-4.4c0,0,0,0,0-0.1
	c1.8,0.3,3.1,0.4,3.1,0.4c0,0-1-0.9-2.3-2.2c0.3-0.8,0.7-1.6,1-2.4c0.1-0.2,0.2-0.5,0.3-0.7c2.9,2.7,6.2,4.8,9.6,6.5
	c2.3,1.1,4.6,2.1,6.9,2.9c0.2,0.3,0.4,0.6,0.6,0.8c2.1,2.8,3.6,4.6,3.6,4.6c0,0-0.8-1.8-1.8-4.6c12.1,3.8,22.4,3.8,22.3,3.8
	c0,0-3.9-0.7-9.5-2.6c-4.2-1.4-9.5-3.6-14.5-6.5c-0.7-2.4-1.4-5-2-7.7c-1.1-5.1-2.2-10.3-3-14.2c2.8,5.6,5.9,10.6,7.7,13.5
	c0.1,0.2,0.2,0.4,0.3,0.6c2,4.2,3.7,6.7,3.7,6.7c0,0-1-2.9-2.1-7.3c-1-4.4-1.9-10.4-2.2-16.5c-0.2-3.2-0.2-6.5-0.1-9.5
	c0.2,0,0.3,0,0.5,0c0.4,7.8,0.8,13.5,0.8,13.5c0,0,0.8-5.7,2.1-13.4c0.1,0,0.2,0,0.2,0c0.1,1.9,0.3,3.8,0.5,5.7
	c0.7,6,2.2,11.8,3.7,16c1.5,4.1,2.8,6.7,2.8,6.7c0,0-0.7-2.8-1.1-7.1c-0.5-4.3-0.5-9.9,0.1-15.6c0.2-1.8,0.5-3.7,0.8-5.5
	c7.7,0.1,15.1-0.2,20.8-0.5l11-0.5l-11-1.2c-5.5-0.6-12.6-1.4-20-2.6c0.4-2,0.8-3.9,1.1-5.6c1.8,2.4,3,3.9,3,3.9
	c0.1,0-1-3.2-2.2-7.5c0.3-1.5,0.6-2.8,0.7-3.7c1.6-0.2,3.2-0.4,4.7-0.6c2.6,6.9,4.7,11.8,4.7,11.8c0,0-1.1-5-2.1-12.1
	c1-0.1,2-0.2,3-0.2c8-0.6,13.3-0.3,13.3-0.3c0,0-5.2-1-13.3-1.4c-1-0.1-2.1-0.1-3.3-0.2c-0.2-1.4-0.4-2.9-0.6-4.5
	c2.7,2.2,4.6,3.6,4.6,3.7c0.1,0-2.4-4.5-5-9.6c1.1-0.3,1.8-0.7,1.8-0.7c0,0-1-0.4-2.2-1.2c0-0.1,0-0.2,0-0.3
	c-0.1-1.3-0.2-2.6-0.2-3.9c1.5,1.6,3,3.1,4.3,4.2c3,2.5,5.2,3.5,5.2,3.5c0,0-1.9-1.7-3.9-4.7c-1.3-1.8-2.5-4.1-3.7-6.7
	c2.7,0.1,4.5,0.3,4.5,0.4c0,0-1.9-0.9-5.1-1.9c-0.5-1.2-1-2.4-1.4-3.7c0-0.9,0-1.8,0.1-2.7c1,0.3,1.7,0.3,1.7,0.3
	c0,0-0.6-0.7-1.1-1.8c-0.2-0.5-0.3-1.1-0.4-1.7c0-0.1,0-0.1,0-0.2c0-0.6,0.1-1.1,0.1-1.7c0-0.1,0-0.2,0.1-0.3
	c0.8-2.7,3.1-3.8,3.2-3.9c0.1-0.2-0.9-1.2-2.5-2.5c0-0.2,0.1-0.5,0.1-0.7c1.7,1.9,3.4,3.6,4.8,4.7c2.1,1.7,3.6,2.5,3.6,2.5
	c0,0-1.1-1.4-2.3-3.6c-1-1.8-2-4.2-2.8-6.8c3.1-1.1,6.2-2.2,8.9-3.3c7,5.4,14.2,10.1,19.5,13.8c5.5,3.7,9,6.4,9,6.4
	c0,0-3.1-3.1-8-7.7c-4.2-4-9.8-9.1-15.2-14.6c5.9-2.5,9.8-4.5,9.8-4.5c0,0-4.7,1.3-11.4,2.8c-0.2-0.3-0.5-0.5-0.7-0.7
	c-0.5-0.6-1.1-1.1-1.6-1.7c1.2-0.2,1.9-0.3,1.9-0.3c0,0-0.8,0-2.3-0.1c-2.5-2.7-4.8-5.5-6.8-8.2c3.4,0.4,6.8,1.3,6.8,1.2l-1.6-1.9
	c-0.3-0.3-0.6-0.7-0.9-1.1c0.8-0.3,1.5-0.6,2.3-1c0.1,0,0.2,0,0.2,0c0,0-0.1-0.1-0.1-0.1c4.1-1.8,8.4-3.9,12.5-6.1
	c8.5-4.4,16.5-9.1,22.5-12.6l10-5.7l-10.8,4.2c-6.5,2.5-15.1,6-24,9.1c-3.4,1.2-6.9,2.3-10.2,3.3c0,0-0.5-0.6-1.1-1.6
	c2.6-0.9,5.3-1.8,8-2.8c9-3.3,17.7-7.1,24-10.4c6.3-3.2,10.2-5.7,10.2-5.7c0,0-4.2,1.9-10.9,4.1c-6.6,2.3-15.6,4.7-24.8,6.6
	c-3.3,0.7-6.6,1.3-9.8,1.9c-0.7-1.6-1.3-3.4-1.7-5.2c-0.3-1.2-0.5-2.5-0.7-3.7c0.8-0.5,1.5-0.9,2.3-1.4c2,1.1,3.9,2,5.5,2.6
	c2.8,1,4.6,1.3,4.6,1.3c0,0-1.7-0.9-3.7-2.8c-1-0.8-2.1-1.9-3.1-3.1c3.8-2.4,7.4-4.6,10.3-6.5c5.1-3.4,8.4-5.7,8.4-5.7
	c0,0-3.6,1.8-9.2,4.2c-0.9,0.4-1.8,0.8-2.8,1.2c-0.7-0.5-4.5-2.4-7.7-4.7c-1.1-0.8-2-1.6-2.8-2.4c-0.2-0.8-0.5-1.7-0.7-2.6
	c-0.8-3.1-1-6-1-7.4c3.3,1.4,6.4,2.5,8.7,3.6c2.7,1.3,4.4,2.5,4.4,2.5c0,0-1.1-1.7-3.4-3.9c-2.2-2.2-5.3-4.7-8.2-7.4
	c2.3-1.6,4.6-3.1,6.8-4.5c1.9,2.6,3.7,5,5.2,7.1c2.5,3.4,4.3,5.6,4.3,5.6c0,0-1.2-2.6-2.8-6.5c-1-2.3-2.2-5.2-3.5-8.3
	c8.1-5.2,14.2-8.8,14.2-8.9c0,0-6.5,2.5-15.3,6.3c-0.6-1.2-1.1-2.5-1.8-3.7c-1.1-2.3-2.4-4.6-3.8-6.7c3-1,5.1-1.3,5.1-1.4
	c0,0-2.3-0.2-6,0c-0.7-1.1-1.4-2.1-2.2-3.1c1.6,1,2.6,1.5,2.6,1.5c0,0-1.3-1.3-2.8-3.7c-1.3-1.9-2.7-4.4-4.2-7.2
	c2.7-3.9,5.6-7.3,5.5-7.3c0,0-3.6,1.4-7.8,3.5c0,0,0,0,0,0c0.9-0.7,1.5-1.1,1.5-1.1c0,0-0.6,0.3-1.7,0.8c-0.3-0.4-0.5-0.8-0.8-1.2
	c1.5-2.2,3.3-4.9,5.5-7.8c0.2-0.3,0.5-0.6,0.7-0.9c0.4,0.2,0.8,0.3,1.1,0.5c2.4,1.2,3.9,2.4,3.9,2.4c0,0-0.9-1.6-2.9-3.7
	c-0.2-0.3-0.6-0.5-0.8-0.8c0-0.1,0.1-0.1,0.1-0.1c2.4-1.2,4.8-2.4,7.4-3.5c14.7-6.5,30.2-10.6,30.1-10.7c0,0.1-14.6,1.4-30.1,5.1
	c3.5-4.2,7.4-8.5,11.4-12.7 M563.1,368.9c-1.7,0.5-3.5,1-5.1,1.5c-0.2-0.5-0.4-1-0.6-1.6c1.2-0.4,2.5-0.8,3.7-1.2
	C562.3,368.4,563.1,368.8,563.1,368.9z M552.5,371.7c-0.1,0-0.1,0-0.2,0c0-0.5,0.1-0.9,0.1-1.3c0,0,0,0,0.1,0c0.3,0.4,0.7,0.8,1,1.1
	C553.1,371.5,552.8,371.6,552.5,371.7z M363.5,576.1c-0.1-0.1-0.2-0.2-0.2-0.3c0.2-0.3,0.5-0.6,0.7-0.8c-0.1,0.2-0.1,0.4-0.2,0.6
	C363.6,575.7,363.5,575.9,363.5,576.1z M347.8,577.8c0,0,0.1,0,0.1-0.1c1.3-0.9,2.3-1.6,3.2-2.3c0,0.4,0.1,0.8,0.2,1.2
	c0.1,0.4,0.8,1.7,2.2,3.1c-0.2,0.3-0.4,0.6-0.6,0.8C351,579.6,349.3,578.7,347.8,577.8z M93.5,208.5c-1.4-0.2-2.9-0.4-4.4-0.7
	c3.5-0.3,7-0.6,10.5-0.8c-0.2,0.5-0.5,1-0.7,1.4c-0.4,0.2-0.8,0.4-1.1,0.6L93.5,208.5z M554.1,316.1c-1.4-1.6-2.4-3.1-2.9-4.4
	c-0.8-2.1-0.3-3.2-0.4-3.4c-0.1-0.6-1.3-1.6-3.1-2.5c1-0.5,1.9-1,2.9-1.5c0.6,0.5,1.2,1.1,1.8,1.6c2.3,2.2,4.5,4.3,6.2,5.7
	c0.8,0.7,1.5,1.2,2,1.5C558.5,314,556.3,315,554.1,316.1z M553.1,323.5c-0.3,0-0.6,0.1-0.9,0.1c0.1-0.1,0.3-0.2,0.4-0.3
	C552.8,323.3,552.9,323.4,553.1,323.5z M127.9,158.4c-0.1,0.1-0.2,0.2-0.3,0.4c0-0.1,0-0.3-0.1-0.5
	C127.7,158.3,127.8,158.4,127.9,158.4z M506.9,179.5c-0.9,0-1.9,0-2.9,0c2.3-0.5,4.4-1,6-1.4C509,178.6,507.9,179,506.9,179.5z
	 M512.4,177c-0.1,0-0.3-0.1-0.5-0.1c0.2,0,0.5,0,0.7-0.1c0,0,0.1,0,0.1,0C512.7,176.9,512.6,176.9,512.4,177
	C512.5,177,512.4,177,512.4,177z M510,176.5c-0.1,0-0.1,0-0.1,0C509.9,176.4,509.9,176.4,510,176.5C510,176.4,510,176.4,510,176.5z
	 M545.3,300.1c0.3,0.2,0.6,0.4,0.9,0.5c-0.2,0.1-0.5,0.1-0.7,0.1C545.4,300.6,545.4,300.3,545.3,300.1z M549.5,265.1
	c-1.1-0.5-2.3-0.8-3.6-1c3.8-2.1,7.7-4,11-5.4c-2.4,2.3-4.7,4.6-6.7,6.8C550,265.4,549.8,265.2,549.5,265.1z M120.6,156.6
	c-0.2,0.6-0.3,1.3-0.5,1.9c-1.2-0.2-2.5-0.3-3.9-0.4c0-0.3-0.1-0.7-0.1-1.1C117.7,156.9,119.1,156.7,120.6,156.6z M530.4,235.5
	c1.9-0.8,4-1.8,6.4-2.9c0.1,0,0.2,0,0.3,0c-2.9,1.7-5.8,3.6-8.3,5.4C529.2,237.2,529.8,236.3,530.4,235.5z M310.2,42.4
	c0.1-0.2,0.1-0.3,0.2-0.5c1,3.6,1.4,7.2,1.5,10.4c-1.1,0.3-2.2,0.7-3.4,1c0.5-2.8,0.8-5.6,0.8-8.1C309.6,44.3,310,43.3,310.2,42.4z
	 M240.2,67.4c-1.6,0.7-3.2,1.3-4.8,1.7c-0.6-2.2-1.2-4.4-1.9-6.8c0-0.1,0-0.2,0-0.2c1.6,1.2,3.2,2.4,4.7,3.6
	C238.9,66.2,239.6,66.8,240.2,67.4z M199.9,54.1c0.3,1.8,0.5,3.7,0.8,5.5c-1.4-3-2.7-6.4-3.1-10.1C198.2,51,199,52.5,199.9,54.1z
	 M58.9,344.7c0,0.6-0.1,1.2-0.1,1.9c-0.3-0.6-0.7-1-1.1-1.3C58.1,345.1,58.5,344.9,58.9,344.7z M355.6,581.6
	c0.3,0.2,0.7,0.5,1.1,0.7c0,0,0.1,0,0.1,0.1c-0.5-0.2-0.9-0.4-1.4-0.7C355.5,581.7,355.5,581.6,355.6,581.6z M386.2,568.8
	c-0.1-0.4-0.1-0.8-0.2-1.2c0.6,0.3,1.1,0.6,1.7,0.8C387.2,568.5,386.7,568.6,386.2,568.8z M487.5,502.5c-0.2,0-0.5,0-0.8,0
	c0,0,0,0,0-0.1c0.3-0.3,0.7-0.6,1-1C487.6,501.8,487.6,502.1,487.5,502.5z M550.4,386.8c0.1-0.7,0.2-1.4,0.3-2.1
	c1.1,1.1,2.2,2.1,3.4,3.2c-1.1,0.1-2.2,0.1-3.4,0.2C550.6,387.6,550.5,387.2,550.4,386.8z M568.2,342.1c-2.7,1.1-5.7,2.4-8.9,3.7
	c-0.3-0.5-0.7-0.9-1-1.4c-0.4-0.6-0.8-1.2-1.2-1.9c0.7,0.1,1.3,0.1,1.9,0.1C563.3,342.6,567,342.1,568.2,342.1z M561,313
	c-0.4-0.5-0.9-1.2-1.4-2.2c-0.7-1.2-1.5-2.7-2.4-4.4c1,1.1,2.1,2.2,3.1,3.4c0.7,0.8,1.4,1.7,2.1,2.6
	C561.9,312.5,561.4,312.8,561,313z M475.3,113.2c3.8-1.2,6.8-2.2,8.8-2.9c-0.5,0.3-2.2,1.2-4.8,2.4c-0.9,0.1-2.2,0.3-3.8,0.7
	c-2.5,0.6-5.7,1.9-8.8,3.6l1-1.5C470.4,114.8,473,113.9,475.3,113.2z M448,88.7c0.7-0.5,1.4-1,2.1-1.5c-0.5,0.5-1,0.9-1.5,1.4
	C448.4,88.6,448.2,88.6,448,88.7z M402.2,51.1c-0.8,1.5-2.3,3.9-4.6,6.6c-3.8,4.5-10.3,8.9-17.6,11.5c-0.2,0.1-0.5,0.1-0.7,0.2
	c1.5-1.3,3.2-2.8,5.1-4.2c2.9-1.8,5.8-3.8,8.4-6.2c0.8-0.7,1.5-1.4,2.3-2.2C397.6,54.7,400.1,52.8,402.2,51.1z M360.4,52.2
	c0,1,0,2-0.1,3.2c-1.7,1-3.4,1.9-4.9,2.7c-0.2,0.1-0.4,0.2-0.6,0.3c1.6-2.2,3.5-4.7,5.5-7.2C360.3,51.4,360.3,51.8,360.4,52.2z
	 M351.3,42.3c1.3-1.1,2.5-1.9,3.3-2.4c-1.9,2.3-3.8,4.5-5.6,6.2c-3.9,3.9-7,6-7.6,6.5c-0.1,0.1-0.2,0.2-0.3,0.3
	c0.6-0.8,1.3-1.6,1.9-2.4C345.8,47.2,348.9,44.3,351.3,42.3z M304.8,29.5c1.1,1.7,2.1,3.5,3,5.4c-0.1,0.4-0.1,0.8-0.2,1.2
	c-0.8,1.4-1.6,2.8-2.4,4.1c-1.8,2.9-3.6,5.7-5.5,8.3c1-4.7,1.8-10,2.8-15c0.3-1.6,0.7-3.2,1.1-4.8C304,28.9,304.4,29.1,304.8,29.5z
	 M281.9,45c-0.7,4.3-2,8.5-3.4,12.3c0-0.2-0.1-0.3-0.1-0.5c-1-5.4-1.1-12.8-0.4-20.2c0.1-1.2,0.2-2.4,0.4-3.6c0.8-2,1.6-4,2.3-5.7
	c0.3-0.6,0.5-1.2,0.7-1.8C283,30.8,283.2,38,281.9,45z M280.9,23.8c-0.4,0.7-0.9,1.4-1.4,2.2c0.2-1.4,0.5-2.7,0.8-3.9
	C280.5,22.7,280.7,23.2,280.9,23.8z M230.5,38.6c0.1-0.7,0.2-1.4,0.3-2.1c1.6,2.4,3.7,5.5,5.7,9c-3.6-2.7-6.2-3.8-6.1-3.8
	c0,0,3,2.1,6.5,6.2c1.4,1.6,2.8,3.5,4,5.7c1,2,1.9,4,2.7,5.9c0,0.2,0,0.5-0.1,0.7c-2.4-2.1-4.5-4.7-5.8-6.8
	c-1.3-2.2-1.9-3.9-1.9-3.9c0,0-0.1,1.8,0.3,4.5c0.2,1.4,0.6,3.1,1.2,4.9c-1.8-1-3.7-1.9-5.5-2.7c-0.5-1.8-0.9-3.5-1.4-5.3
	c0-0.2-0.1-0.3-0.1-0.5C230,46.1,230.1,41.9,230.5,38.6z M218.2,52.9c2.2,1.1,4.6,2.4,7.2,3.9c0,0.1,0,0.2,0,0.3
	c-0.1,1.7-0.1,3.4-0.1,5c-2-1.6-4.3-3.2-6.8-4.9c-0.2-1.4-0.4-2.9-0.6-4.4C218,52.8,218.1,52.9,218.2,52.9z M198,45.8
	c-0.2-0.1-0.3-0.1-0.5-0.2c-0.1-0.1-0.2-0.2-0.3-0.3c0-0.3,0-0.6,0-0.9C197.5,44.8,197.8,45.3,198,45.8z M121.2,147.9
	c-1.6,0.4-3.2,0.8-4.8,1.3c0.1-0.6,0.1-1.2,0.2-1.8c0-0.3,0.1-0.6,0.2-0.9C118.3,146.9,119.8,147.4,121.2,147.9z M83.8,175
	c0.7-1.5,1.8-3.6,3.8-5.8c1-1.1,2.2-2.2,3.6-3.2c0.3,0,0.6,0,0.8,0c7.6,0,15.3,0.4,20.9,1.4c2.9,0.5,5.1,1.2,6.6,1.7
	c-3.4,0.7-6.9,1.7-10.6,2.9c-4.1-0.1-8.8,0.1-13.5,0.7C91.3,173.3,87.2,174.1,83.8,175z M102.6,180.2c0.6-0.1,1.1-0.2,1.7-0.3
	c2,0.5,4,1,5.6,1.4c0,0,0,0,0.1,0c-0.4,0.1-0.8,0.2-1.3,0.4c-4.2,0.3-8.5,0.6-12.9,1.1c-1.3,0-2.6,0-3.8,0.1
	C95.3,181.9,98.9,181,102.6,180.2z M94,190.7c-0.9-0.4-1.9-0.8-2.8-1.1c2.4-0.1,4.9-0.1,7.3-0.2c-1.2,0.5-2.3,1.1-3.6,1.7
	C94.6,190.9,94.3,190.8,94,190.7z M36.5,326.6c2.6-3,6.4-6.7,10.5-10c0.1-0.1,0.2-0.2,0.3-0.3c1.7-0.6,3.4-1.2,5.2-1.8
	c3.8-1.4,7.7-2.8,10.6-3.8c0.2-0.1,0.4-0.1,0.7-0.2c0,0.2-0.1,0.3-0.1,0.5c-0.4,0-0.7,0.1-1.1,0.2c-0.7,0.2-3.8,1.4-7.8,3.6
	c-4,2.2-8.9,5.3-13.3,8.8c-3.3,2.6-6.3,5.4-8.8,7.9C33.3,330.6,34.6,328.8,36.5,326.6z M37,343c3.8-3.7,8.1-6.8,11.7-8.8
	c1-0.3,2-0.6,3-0.9c-4.6,4.4-11.2,11-15.1,15c-2.2,1.3-4.4,2.5-6.5,3.5C31.8,348.8,34.2,345.7,37,343z M28.5,355.1
	c0-0.1,0.1-0.1,0.1-0.2c0.9-0.1,1.7-0.3,2.7-0.5c-1.2,1-2.3,2-3.4,2.9C28,356.6,28.2,355.9,28.5,355.1z M33.1,365.7
	c1.6-3.2,4.3-7,7.5-10.4c0.1-0.1,0.3-0.3,0.4-0.4c3.7,0.3,9.4,0.6,13.4,0.8c-1.7,1.1-3.5,2.2-5.2,3.4c-4.1,2.7-8.2,5.4-11.4,7.1
	c-3.2,1.8-5.4,2.6-5.4,2.7c0,0,0.6-0.1,1.6-0.2c-0.2,0.1-0.4,0.3-0.6,0.4c-0.9,0.6-1.7,1.3-2.5,1.9
	C31.1,370.3,31.7,368.3,33.1,365.7z M63.6,398.9c0.1,0.5,0.3,1,0.4,1.6c-1.2,0.2-2.2,0.6-3.1,1.2C61.8,400.7,62.7,399.8,63.6,398.9z
	 M71.3,491.7c0.2-0.7,0.4-1.5,0.7-2.3c0.1-0.2,0.2-0.4,0.2-0.6c-0.1,0.7-0.3,1.4-0.4,2C71.7,491.2,71.5,491.4,71.3,491.7z
	 M113.8,511.5c-0.3,1.1-0.5,2.1-0.8,3.1c-0.4,0.3-0.7,0.5-1.1,0.8c-1.4,1-2.7,2-4.1,3C109.6,516.2,111.6,513.9,113.8,511.5z
	 M121.8,516.7c0.4-0.2,0.8-0.4,1.2-0.6c-0.6,3.7-1.4,8-2.5,12.2c-0.6,2.4-1.4,4.7-2.2,6.8C118.5,534.3,119.4,525.9,121.8,516.7z
	 M170.6,564.9c2.7-5.4,6-10.4,8.9-14.2c-0.3,0.7-0.5,1.3-0.8,2c-2.2,4.1-4.8,9-7.5,13.8c-1.5,2.6-3.1,5.2-4.7,7.5
	C167.7,571,169,567.9,170.6,564.9z M194.9,571.1c-0.1-3.3,1.3-7.2,3.4-11c2.6-1.5,4.7-2.7,5.7-3.3c-2.2,4.3-5.4,10.5-8.4,16.5
	c-0.1,0.2-0.2,0.3-0.3,0.5C195.1,573,194.9,572.1,194.9,571.1z M208.3,578.7l4.4-4.1c-0.6,0.8-1.1,1.7-1.6,2.5
	C210,577.6,209.1,578.2,208.3,578.7z M231.1,577c-1.1,0.9-2.3,1.7-3.4,2.6c0.8-1.7,1.7-3.6,2.9-5.6c2.6-0.8,5.1-1.5,7.4-2.2
	L231.1,577z M274,577.1c0.4-0.5,0.7-1.1,0.9-1.6c0.3-0.3,0.6-0.6,0.9-0.9c0,0.1,0,0.3-0.1,0.4c-0.4,0.5-0.8,0.9-1.2,1.4
	C274.4,576.6,274.2,576.8,274,577.1z M289.5,579.2C289.5,579.2,289.5,579.2,289.5,579.2c0.7-0.8,1.3-1.6,1.9-2.3
	c0.1,0.1,0.2,0.2,0.4,0.3C291,577.9,290.2,578.6,289.5,579.2z M306.2,582.6c-1.2-0.8-2.4-2-3.5-3.3c0.9-0.4,1.8-0.8,2.6-1.1
	c0.8-0.3,1.5-0.6,2.2-0.8c0.3,0.6,0.8,1.2,1.4,1.6c0.3,0.2,1.1,0.7,2.4,1.5c-1.3,1-2.6,2-3.9,2.9C307,583.1,306.6,582.9,306.2,582.6
	z M327.4,579c0.2-0.1,0.4-0.2,0.6-0.3c1-0.5,1.8-1,2.6-1.5c0.3,1.1,1,2.2,2,3c-0.4,0.4-0.8,0.7-1.3,1.1
	C329.9,580.6,328.6,579.8,327.4,579z M409.4,563.9c0.4,0.1,0.7,0.1,1.1,0.2c0.1,0.1,0.3,0.2,0.4,0.2c0.2,0.2,0.4,0.4,0.6,0.5
	C410.8,564.5,410.1,564.2,409.4,563.9z M460.4,561.7c-6.2-1.9-14.4-4.9-21.4-9.6c-1.6-1.1-3.1-2.2-4.5-3.4c-0.8-1.6-1.4-3.1-1.9-4.4
	c0.1-0.1,0.1-0.3,0.2-0.5c1.9,1.4,4.8,3.4,7.8,5c4.8,2.7,9.6,4.6,9.6,4.6c0,0-3.1-3.9-5.7-8.3c1.6,1.4,3.3,2.8,4.9,4.3
	c0.6,0.6,1.2,1.1,1.8,1.7c-0.2,1.9-0.2,3.1-0.3,3.1c0,0,0.4-0.9,1-2.4c4.2,3.9,8.1,7.7,11.2,10.8C462.4,562.3,461.5,562,460.4,561.7
	z M466.7,543.8c-0.1-0.1-0.1-0.1-0.2-0.2c3.2,0.4,6.3,0.5,8.7,0.7l4.9,0.3c0.1,1.8,0.3,3.4,0.5,4.9c0.3,1.9,0.5,3.5,0.7,4.7
	C476.9,551.6,471.6,548.1,466.7,543.8z M480.1,544.3l-4.5-1.7c-3.3-1.2-7.7-2.9-11.9-4.9c-1.4-0.7-2.7-1.4-4-2.1
	c1.3-2.3,2.6-4.5,3.9-6.3c1,0.5,2,1.1,3,1.6c0.2,1.7,0.4,2.8,0.4,2.8c0,0,0.3-0.9,0.9-2.2c0.9,0.4,1.7,0.9,2.6,1.2
	c3.2,1.4,6.4,2.7,9.4,3.9C479.8,539.3,479.9,541.9,480.1,544.3z M473.1,527.9c-0.9-0.7-1.8-1.4-2.7-2c0.3-0.7,0.7-1.3,1.1-2
	c0.6-1.1,1.3-2.2,1.9-3.3c0.2,0.1,0.4,0.3,0.6,0.4c0.3,4.4,0.7,7.9,0.8,7.9c0,0,0.8-2.6,2.2-6c0.2,0.1,0.5,0.3,0.7,0.4
	c0.6,0.4,1.4,0.7,2.1,1c-0.1,2.6-0.1,5.3-0.1,8C477.5,531,475.2,529.5,473.1,527.9z M488.8,520c0.2-0.8,0.4-1.5,0.6-2.2
	c0.8,0.7,1.6,1.3,2.3,1.9c4,3.2,8.2,5.7,12.1,7.8c-2.3-0.9-4.7-1.9-7-3C494,523.1,491.3,521.6,488.8,520z M495.5,515.6
	c-1.5-1.7-2.9-3.5-4.2-5.3c0-0.1,0-0.1,0-0.2c0.3-1.8-0.6-3.5-2-4.6c0.7-1.3,1.5-2.8,2.4-4.3c0,0.1,0,0.1,0,0.2
	c0,4.6,0.3,8.5,0.3,8.5c0,0,0.5-1.2,1.4-3c1.1,3,2.4,6,4,8.8c0.9,1.7,1.9,3.3,2.9,4.8C498.8,519,497.1,517.4,495.5,515.6z
	 M514.6,485.4c-0.5-0.7-0.9-1.3-1.2-2c0.5-1,0.9-2,1.3-3c1.6,3,3.5,6.5,5.4,10c0.3,0.5,0.5,0.9,0.8,1.4
	C518.4,489.8,516.2,487.6,514.6,485.4z M547.2,441.3c-1.2,0-2.5,0-3.7,0c-0.4-1.5-1.5-2.8-3.1-3.4c-0.3-2.7-0.4-5.3-0.2-7.2
	c1,0.3,2,0.6,3,0.8c0.2,0.1,0.3,0.3,0.5,0.5c0.2,0.1,0.3,0.3,0.5,0.4C545.2,435.5,546.3,438.5,547.2,441.3z M558.9,391.9
	c-2.3,0.4-4.6,0.8-7,1.2c-0.2-0.7-0.3-1.4-0.5-2c1.7-0.5,3.4-0.9,4.9-1.3C557.1,390.5,558,391.2,558.9,391.9z"/>
<g>
	
		<radialGradient id="SVGID_2_" cx="-745.2442" cy="586.0668" r="78.705" gradientTransform="matrix(-1 0 0 -1 -487.7432 847.8828)" gradientUnits="userSpaceOnUse">
		<stop  offset="0" style="stop-color:#00B9D2"/>
		<stop  offset="0.2003" style="stop-color:#00AFCE"/>
		<stop  offset="0.5191" style="stop-color:#0099C5"/>
		<stop  offset="0.9144" style="stop-color:#0076C2"/>
		<stop  offset="1" style="stop-color:#006FC1"/>
	</radialGradient>
	<path fill="url(#SVGID_2_)" d="M336.2,261.8c0-43.5-35.2-78.7-78.7-78.7c-43.5,0-78.7,35.2-78.7,78.7c0,43.5,35.2,78.7,78.7,78.7
		C301,340.5,336.2,305.3,336.2,261.8z"/>
	
		<radialGradient id="SVGID_3_" cx="658.8203" cy="548.9521" r="96.9862" gradientTransform="matrix(1 0 0 -1 -384.3643 847.8828)" gradientUnits="userSpaceOnUse">
		<stop  offset="0" style="stop-color:#FFFFFF"/>
		<stop  offset="1" style="stop-color:#F6F6F6"/>
	</radialGradient>
	<path fill="url(#SVGID_3_)" d="M320.5,261.8c0-34.8-28.2-63-63-63c-34.8,0-63,28.2-63,63c0,34.8,28.2,63,63,63
		C292.3,324.8,320.5,296.6,320.5,261.8z"/>
	
		<radialGradient id="SVGID_4_" cx="625.417" cy="573.9258" r="46.4562" gradientTransform="matrix(1 0 0 -1 -384.3643 847.8828)" gradientUnits="userSpaceOnUse">
		<stop  offset="0" style="stop-color:#585857"/>
		<stop  offset="1" style="stop-color:#3D3D3C"/>
	</radialGradient>
	<path fill="url(#SVGID_4_)" d="M263.1,256.2c0-16.6-13.5-30.2-30.1-30.2s-30.2,13.5-30.2,30.2c0,16.7,13.5,30.2,30.2,30.2
		C249.6,286.3,263.1,272.8,263.1,256.2z"/>
	
		<radialGradient id="SVGID_5_" cx="2570.2229" cy="-801.2271" r="39.7491" gradientTransform="matrix(0.2011 -0.1966 -0.3189 -0.37 -526.7195 462.1232)" gradientUnits="userSpaceOnUse">
		<stop  offset="0" style="stop-color:#FFFFFF"/>
		<stop  offset="1" style="stop-color:#F6F6F6"/>
	</radialGradient>
	<path fill="url(#SVGID_5_)" d="M244.6,243.9c-4.5-5.3-10.5-7.3-13.4-4.5c-2.9,2.8-1.5,9.4,3,14.6c4.5,5.3,10.6,7.3,13.4,4.5
		C250.5,255.8,249.2,249.2,244.6,243.9z"/>
</g>
<g>
	
		<radialGradient id="SVGID_6_" cx="-913.7792" cy="586.0668" r="78.706" gradientTransform="matrix(-1 0 0 -1 -487.7432 847.8828)" gradientUnits="userSpaceOnUse">
		<stop  offset="0" style="stop-color:#00B9D2"/>
		<stop  offset="0.2003" style="stop-color:#00AFCE"/>
		<stop  offset="0.5191" style="stop-color:#0099C5"/>
		<stop  offset="0.9144" style="stop-color:#0076C2"/>
		<stop  offset="1" style="stop-color:#006FC1"/>
	</radialGradient>
	<path fill="url(#SVGID_6_)" d="M504.7,261.8c0-43.5-35.2-78.7-78.7-78.7c-43.5,0-78.7,35.2-78.7,78.7c0,43.5,35.2,78.7,78.7,78.7
		C469.5,340.5,504.7,305.3,504.7,261.8z"/>
	
		<radialGradient id="SVGID_7_" cx="827.3574" cy="548.9521" r="96.9887" gradientTransform="matrix(1 0 0 -1 -384.3643 847.8828)" gradientUnits="userSpaceOnUse">
		<stop  offset="0" style="stop-color:#FFFFFF"/>
		<stop  offset="1" style="stop-color:#F6F6F6"/>
	</radialGradient>
	<path fill="url(#SVGID_7_)" d="M489,261.8c0-34.8-28.2-63-63-63c-34.8,0-63,28.2-63,63c0,34.8,28.2,63,63,63
		C460.8,324.8,489,296.6,489,261.8z"/>
	
		<radialGradient id="SVGID_8_" cx="793.9492" cy="573.9263" r="46.4543" gradientTransform="matrix(1 0 0 -1 -384.3643 847.8828)" gradientUnits="userSpaceOnUse">
		<stop  offset="0" style="stop-color:#585857"/>
		<stop  offset="1" style="stop-color:#3D3D3C"/>
	</radialGradient>
	<circle fill="url(#SVGID_8_)" cx="401.5" cy="256.2" r="30.1"/>
	
		<radialGradient id="SVGID_9_" cx="3025.0569" cy="-1042.9058" r="39.7465" gradientTransform="matrix(0.2011 -0.1966 -0.3189 -0.37 -526.7195 462.1232)" gradientUnits="userSpaceOnUse">
		<stop  offset="0" style="stop-color:#FFFFFF"/>
		<stop  offset="1" style="stop-color:#F6F6F6"/>
	</radialGradient>
	<path fill="url(#SVGID_9_)" d="M413.1,243.9c-4.6-5.3-10.5-7.3-13.4-4.5c-2.9,2.8-1.5,9.4,3,14.6c4.5,5.3,10.6,7.3,13.4,4.5
		C419.1,255.8,417.7,249.2,413.1,243.9z"/>
</g>
<g>
	<g>
		<g>
			<g>
				<g>
					<defs>
						<path id="SVGID_10_" d="M345.3,397.1c-17.5,2.2-84.1,13.9-69.1,39.5c11.9,21.9,60.6-0.6,78-1.3c15-0.6,29.3,7.5,44.3,8.1
							c16.9,0.6,31-10.4,15-24.4C389.5,398.1,352.3,396.6,345.3,397.1"/>
					</defs>
					<clipPath id="SVGID_11_">
						<use xlink:href="#SVGID_10_"  overflow="visible"/>
					</clipPath>
				</g>
			</g>
		</g>
	</g>
</g>
<g>
	<path fill="#5E1C10" d="M348.6,445.1c17.7-1.3,85.5-9.6,71.7-36.2c-10.8-22.7-56.1-2.6-73.7-2.9c-15.1-0.2-34.2-9.1-49.2-10.5
		c-17-1.5-31.8,8.9-16.4,23.8C304.2,441.7,341.6,445.2,348.6,445.1"/>
	<g>
		<defs>
			<path id="SVGID_12_" d="M348.6,445.1c17.7-1.3,85.5-9.6,71.7-36.2c-10.8-22.7-56.1-2.6-73.7-2.9c-15.1-0.2-34.2-9.1-49.2-10.5
				c-17-1.5-31.8,8.9-16.4,23.8C304.2,441.7,341.6,445.2,348.6,445.1"/>
		</defs>
		<clipPath id="SVGID_13_">
			<use xlink:href="#SVGID_12_"  overflow="visible"/>
		</clipPath>
		
			<linearGradient id="SVGID_14_" gradientUnits="userSpaceOnUse" x1="343.6895" y1="73.1406" x2="343.6895" y2="89.9167" gradientTransform="matrix(-1 0 0 -1 695.7776 524)">
			<stop  offset="0" style="stop-color:#C4566D"/>
			<stop  offset="1" style="stop-color:#C76B8C"/>
		</linearGradient>
		<path clip-path="url(#SVGID_13_)" fill="url(#SVGID_14_)" d="M352.1,464.6c21.7,0,39.3-6.9,39.3-15.4c0-8.5-17.6-15.4-39.3-15.4
			c-21.7,0-39.3,6.9-39.3,15.4C312.8,457.7,330.4,464.6,352.1,464.6z"/>
		<g clip-path="url(#SVGID_13_)">
			
				<radialGradient id="SVGID_15_" cx="341.1685" cy="116.276" r="7.0122" gradientTransform="matrix(-1 0 0 -1 695.7776 524)" gradientUnits="userSpaceOnUse">
				<stop  offset="0" style="stop-color:#FFFFFF"/>
				<stop  offset="1" style="stop-color:#F6F6F6"/>
			</radialGradient>
			<rect x="347.8" y="400.5" fill="url(#SVGID_15_)" width="13.5" height="14.5"/>
			
				<radialGradient id="SVGID_16_" cx="358.6085" cy="116.276" r="7.0108" gradientTransform="matrix(-1 0 0 -1 695.7776 524)" gradientUnits="userSpaceOnUse">
				<stop  offset="0" style="stop-color:#FFFFFF"/>
				<stop  offset="1" style="stop-color:#F6F6F6"/>
			</radialGradient>
			<rect x="330.4" y="400.5" fill="url(#SVGID_16_)" width="13.5" height="14.5"/>
		</g>
	</g>
</g>
</svg>
